<svg xmlns="http://www.w3.org/2000/svg" xmlns:xlink="http://www.w3.org/1999/xlink" id="svg" version="1.1" width="400" height="400" viewBox="0, 0, 400,400"><g id="svgg"><path id="path0" d="M154.000 48.737 C 124.950 57.029,102.435 69.756,81.452 89.744 C 78.061 92.974,77.883 93.249,79.993 91.996 C 87.086 87.784,97.185 84.456,108.500 82.600 C 118.211 81.007,127.596 80.278,147.333 79.582 C 173.007 78.676,177.558 77.133,175.737 69.948 C 173.743 62.081,168.121 54.701,160.021 49.315 C 157.412 47.581,157.889 47.626,154.000 48.737 M173.333 100.611 C 128.286 102.235,97.136 111.486,77.667 129.022 C 76.704 129.889,75.675 130.812,75.380 131.072 C 66.660 138.770,58.183 153.650,54.772 167.250 C 51.984 178.364,50.753 194.224,51.798 205.583 C 53.689 226.146,59.650 244.667,69.923 261.890 C 71.171 263.983,72.168 265.719,72.138 265.746 C 72.108 265.774,70.358 267.089,68.250 268.670 C 63.990 271.863,60.167 274.953,60.167 275.202 C 60.167 276.160,69.500 288.430,74.451 293.979 C 76.665 296.461,76.441 296.270,76.786 295.967 C 77.152 295.645,83.822 291.203,87.333 288.943 C 125.180 264.583,164.654 245.536,204.500 232.407 C 238.998 221.040,272.235 214.620,305.417 212.915 C 308.167 212.774,310.604 212.641,310.833 212.621 C 311.376 212.572,302.239 209.902,294.429 207.827 C 290.947 206.902,279.207 204.051,275.667 203.270 C 229.308 193.049,196.918 192.944,181.949 202.965 C 181.290 203.406,180.657 203.824,180.544 203.892 C 180.304 204.037,180.323 203.893,180.949 200.833 C 182.006 195.659,184.473 189.749,187.454 185.250 C 201.103 164.646,226.959 160.570,266.134 172.848 C 285.356 178.872,308.521 190.078,328.194 202.869 L 330.471 204.349 330.566 205.716 C 330.619 206.468,330.742 209.033,330.840 211.417 C 330.938 213.800,331.089 217.137,331.175 218.833 C 331.261 220.529,331.332 222.080,331.332 222.279 L 331.333 222.641 325.292 222.640 C 298.033 222.638,279.713 231.569,272.248 248.500 C 270.014 253.565,272.970 256.723,283.072 260.068 L 284.894 260.671 286.655 258.950 C 290.285 255.403,294.855 252.108,297.702 250.986 C 302.302 249.173,312.759 250.520,325.101 254.516 L 327.668 255.347 328.082 256.164 C 332.668 265.214,326.236 285.173,317.275 289.696 C 307.700 294.530,273.098 282.567,259.252 269.636 C 247.933 259.066,251.100 244.037,267.505 230.467 L 268.250 229.851 265.333 230.602 C 259.388 232.133,249.575 235.138,242.500 237.593 C 199.225 252.610,154.608 277.214,109.083 311.168 C 104.917 314.275,103.152 315.517,101.405 316.570 L 100.474 317.130 102.779 318.712 C 107.505 321.957,113.567 325.498,118.679 327.999 L 120.775 329.025 122.513 328.246 C 125.335 326.981,130.559 324.282,133.333 322.655 C 134.754 321.821,136.179 320.986,136.500 320.799 L 137.083 320.459 140.907 321.988 C 189.314 341.354,243.833 336.115,286.674 307.979 L 289.931 305.840 291.840 306.169 C 299.910 307.560,310.776 308.737,311.319 308.280 C 311.464 308.157,312.633 307.201,313.917 306.155 C 325.999 296.304,335.336 285.566,342.528 273.250 C 346.664 266.168,350.999 257.877,352.827 253.552 L 353.544 251.854 352.589 250.418 C 350.288 246.960,346.143 243.523,342.031 241.665 C 340.982 241.191,340.985 241.270,341.925 238.667 C 351.080 213.295,351.961 184.175,344.202 163.417 C 332.351 131.712,301.579 112.688,249.333 104.763 C 235.153 102.612,220.347 101.358,201.000 100.667 C 197.019 100.525,176.858 100.484,173.333 100.611 M209.417 114.008 C 249.778 117.398,285.702 128.536,307.505 144.420 C 311.800 147.549,318.298 153.095,319.737 154.858 C 319.912 155.074,320.603 155.835,321.272 156.549 C 328.626 164.407,334.202 174.584,335.924 183.289 C 336.308 185.227,336.220 185.239,334.863 183.433 C 320.787 164.707,287.049 144.085,241.583 126.418 C 239.383 125.563,236.871 124.586,236.000 124.247 C 230.017 121.915,213.051 115.997,208.296 114.584 C 206.418 114.025,205.559 113.548,206.798 113.752 C 207.047 113.793,208.225 113.908,209.417 114.008 M144.417 129.675 C 152.118 132.256,160.766 138.662,161.115 142.044 C 161.484 145.624,156.701 150.735,148.101 155.950 L 146.099 157.164 145.734 156.157 C 144.757 153.459,141.674 150.340,137.515 147.842 C 135.847 146.840,135.953 146.855,135.688 147.588 C 135.006 149.472,132.028 152.792,128.666 155.414 C 125.910 157.565,119.607 161.712,119.445 161.482 C 119.420 161.446,119.274 161.004,119.121 160.499 C 118.238 157.593,114.519 153.865,109.602 150.955 C 105.471 148.510,104.086 145.959,104.901 142.294 C 105.662 138.876,112.840 130.167,114.896 130.167 C 117.700 130.167,127.250 135.051,131.536 138.677 C 132.860 139.798,132.921 139.829,133.053 139.464 C 134.022 136.799,138.815 130.678,140.942 129.390 C 141.800 128.871,142.086 128.894,144.417 129.675 M151.667 169.568 C 154.724 169.832,161.045 170.580,162.167 170.810 L 162.750 170.929 163.058 172.590 C 163.503 174.992,163.535 181.429,163.112 183.667 C 161.646 191.436,157.131 196.400,149.885 198.210 C 149.077 198.411,148.393 198.589,148.365 198.604 C 148.337 198.619,148.969 199.783,149.770 201.190 C 155.703 211.613,155.972 218.003,150.800 225.645 C 143.393 236.589,116.464 242.163,98.038 236.567 C 85.679 232.813,78.680 225.453,77.086 214.534 C 73.816 192.132,94.487 173.519,126.738 169.827 C 132.850 169.127,145.091 169.000,151.667 169.568 M140.917 199.011 C 109.902 199.933,84.479 208.026,88.900 215.570 C 92.753 222.145,128.963 224.191,140.048 218.460 C 145.400 215.694,148.219 208.530,147.019 200.750 C 146.710 198.749,146.759 198.829,145.864 198.860 C 145.435 198.875,143.208 198.942,140.917 199.011 M228.763 261.205 C 234.945 265.261,244.439 280.165,244.130 285.330 C 243.823 290.465,234.847 294.622,220.750 296.157 C 219.833 296.257,218.854 296.376,218.574 296.421 L 218.066 296.503 218.066 294.460 C 218.067 292.916,217.978 292.061,217.704 290.963 C 216.800 287.337,215.334 284.465,211.622 279.048 C 208.450 274.420,209.865 269.150,215.108 266.064 C 223.145 261.335,226.916 259.993,228.763 261.205 " stroke="none" fill="#1c0414" fill-rule="evenodd"/><path id="path1" d="M191.083 27.845 C 182.581 28.348,173.460 29.523,167.101 30.935 C 163.305 31.778,156.923 33.939,158.090 33.986 C 158.915 34.020,164.236 37.468,167.060 39.799 C 177.518 48.429,184.304 60.364,186.915 74.719 C 187.732 79.213,187.259 81.552,185.038 84.006 C 180.586 88.926,170.733 91.358,153.333 91.834 C 137.235 92.273,128.678 93.248,118.176 95.836 C 92.615 102.136,70.854 114.500,51.417 133.768 C 49.767 135.403,48.360 136.724,48.292 136.704 C 48.223 136.683,48.178 136.723,48.193 136.792 C 48.207 136.860,47.946 137.500,47.612 138.213 C 44.451 144.958,40.519 157.272,38.685 166.167 C 31.699 200.058,37.033 234.710,53.923 265.167 C 55.299 267.647,59.032 273.826,59.649 274.644 L 59.946 275.037 63.265 272.383 C 65.090 270.923,67.783 268.845,69.250 267.764 C 72.436 265.417,72.231 265.852,71.036 263.969 C 60.964 248.089,54.249 228.691,52.095 209.250 C 48.577 177.495,56.514 149.852,74.250 132.086 C 85.989 120.328,101.280 112.386,123.000 106.768 C 145.966 100.828,181.269 98.868,219.250 101.425 C 303.454 107.094,344.835 134.178,349.232 186.500 C 350.673 203.646,347.491 225.358,341.269 240.833 C 341.194 241.020,341.644 241.328,343.042 242.047 C 346.885 244.022,350.546 247.169,352.612 250.271 L 353.625 251.792 354.424 249.771 C 354.863 248.660,355.358 247.430,355.523 247.040 C 355.688 246.649,355.836 246.274,355.851 246.206 C 355.867 246.139,356.066 245.596,356.293 245.000 C 368.586 212.773,368.077 174.753,354.915 142.083 L 353.370 138.250 354.060 138.150 L 354.750 138.050 353.997 138.025 L 353.244 138.000 352.509 136.375 C 333.770 94.930,295.903 62.860,250.004 49.565 C 245.563 48.278,246.067 48.647,246.588 47.064 C 248.184 42.211,248.150 38.648,246.484 36.227 C 244.302 33.055,229.085 29.347,212.667 27.986 C 209.816 27.750,194.398 27.649,191.083 27.845 M224.162 32.262 C 227.327 32.727,231.722 33.717,235.583 34.836 C 237.321 35.340,242.368 36.995,242.482 37.099 C 242.518 37.132,241.877 37.929,241.058 38.871 C 233.844 47.169,226.516 58.625,222.159 68.417 C 220.895 71.258,218.500 77.186,218.500 77.474 C 218.500 78.851,215.933 73.401,213.937 67.787 C 209.000 53.899,208.361 42.590,212.092 35.153 C 213.613 32.122,217.258 31.250,224.162 32.262 M264.167 59.496 C 299.730 71.353,330.661 98.995,347.729 134.170 C 349.757 138.350,353.815 147.833,353.576 147.833 C 353.546 147.833,352.710 146.840,351.719 145.625 C 331.687 121.073,300.223 91.109,262.167 60.341 C 258.913 57.710,258.868 57.729,264.167 59.496 M76.745 94.375 L 75.750 95.417 76.792 94.422 C 77.365 93.875,77.833 93.406,77.833 93.380 C 77.833 93.257,77.669 93.407,76.745 94.375 M74.406 96.875 L 73.917 97.417 74.458 96.927 C 74.963 96.471,75.077 96.333,74.948 96.333 C 74.919 96.333,74.675 96.577,74.406 96.875 M73.073 98.375 L 72.583 98.917 73.125 98.427 C 73.630 97.971,73.743 97.833,73.615 97.833 C 73.586 97.833,73.342 98.077,73.073 98.375 M356.294 138.285 C 356.501 138.324,356.801 138.323,356.960 138.281 C 357.120 138.239,356.950 138.207,356.583 138.209 C 356.217 138.211,356.086 138.245,356.294 138.285 M41.167 138.398 C 41.167 138.433,41.388 138.495,41.658 138.534 C 41.928 138.574,42.111 138.545,42.065 138.470 C 41.982 138.336,41.167 138.271,41.167 138.398 M358.124 138.659 C 358.932 139.526,362.619 148.138,364.419 153.360 C 369.456 167.982,371.904 185.051,371.011 199.333 C 370.523 207.145,370.587 208.518,371.582 211.564 C 373.710 218.078,379.478 223.280,385.671 224.270 C 386.035 224.328,386.338 224.460,386.343 224.563 C 386.348 224.666,386.756 223.545,387.251 222.073 C 394.100 201.664,397.112 167.230,393.026 156.043 C 389.799 147.209,377.983 140.763,361.333 138.754 C 357.421 138.282,357.783 138.293,358.124 138.659 M26.872 141.176 C 15.270 144.617,8.415 150.203,6.428 157.833 C 3.309 169.811,6.378 203.165,12.171 220.250 L 12.510 221.250 12.424 220.417 C 12.377 219.958,12.257 217.026,12.156 213.900 C 11.244 185.565,17.148 159.324,28.269 142.286 C 28.854 141.389,29.333 140.620,29.333 140.578 C 29.333 140.453,29.195 140.487,26.872 141.176 M373.583 143.919 C 388.785 147.741,394.330 167.236,388.728 197.167 C 387.947 201.341,385.343 212.713,385.117 212.939 C 385.098 212.957,385.078 209.735,385.071 205.778 C 385.032 181.915,380.039 160.567,371.017 145.690 C 370.274 144.465,369.667 143.429,369.667 143.388 C 369.667 143.224,372.170 143.564,373.583 143.919 M27.550 200.333 C 27.550 200.838,27.581 201.044,27.619 200.792 C 27.658 200.540,27.658 200.127,27.619 199.875 C 27.581 199.623,27.550 199.829,27.550 200.333 M27.548 206.250 C 27.549 206.708,27.581 206.876,27.620 206.623 C 27.658 206.369,27.657 205.994,27.617 205.789 C 27.578 205.584,27.546 205.792,27.548 206.250 M19.042 233.948 C 19.202 233.990,19.465 233.990,19.625 233.948 C 19.785 233.906,19.654 233.872,19.333 233.872 C 19.012 233.872,18.881 233.906,19.042 233.948 M376.740 241.208 L 376.250 241.750 376.792 241.260 C 377.297 240.804,377.410 240.667,377.281 240.667 C 377.252 240.667,377.009 240.910,376.740 241.208 M356.875 246.448 C 357.035 246.490,357.298 246.490,357.458 246.448 C 357.619 246.406,357.488 246.372,357.167 246.372 C 356.846 246.372,356.715 246.406,356.875 246.448 M359.963 246.622 C 360.355 246.657,360.955 246.657,361.296 246.621 C 361.637 246.585,361.317 246.557,360.583 246.557 C 359.850 246.558,359.571 246.587,359.963 246.622 M343.792 298.951 C 343.998 298.991,344.335 298.991,344.542 298.951 C 344.748 298.911,344.579 298.879,344.167 298.879 C 343.754 298.879,343.585 298.911,343.792 298.951 M336.167 306.583 C 335.762 306.996,335.468 307.333,335.514 307.333 C 335.560 307.333,335.928 306.996,336.333 306.583 C 336.738 306.171,337.032 305.833,336.986 305.833 C 336.940 305.833,336.572 306.171,336.167 306.583 M286.375 308.312 C 284.427 309.583,282.027 311.093,281.042 311.668 C 280.056 312.243,278.612 313.086,277.833 313.541 C 242.143 334.396,193.800 339.345,152.667 326.356 C 148.760 325.122,141.820 322.582,139.167 321.415 C 136.989 320.457,137.147 320.459,135.748 321.361 C 133.462 322.834,127.495 326.039,124.191 327.568 L 120.837 329.121 124.877 331.046 C 185.078 359.733,257.126 351.769,308.314 310.771 L 311.044 308.584 307.730 308.304 C 301.876 307.808,294.360 306.848,290.333 306.080 C 290.008 306.018,289.140 306.508,286.375 308.312 M331.665 311.292 L 328.750 314.250 331.708 311.335 C 334.457 308.627,334.742 308.333,334.623 308.333 C 334.599 308.333,333.268 309.665,331.665 311.292 M327.240 315.542 L 326.750 316.083 327.292 315.594 C 327.797 315.138,327.910 315.000,327.781 315.000 C 327.752 315.000,327.509 315.244,327.240 315.542 M332.331 319.958 L 330.083 322.250 332.375 320.002 C 333.635 318.766,334.667 317.735,334.667 317.711 C 334.667 317.591,334.419 317.830,332.331 319.958 M217.875 362.282 C 218.035 362.323,218.298 362.323,218.458 362.282 C 218.619 362.240,218.487 362.205,218.167 362.205 C 217.846 362.205,217.715 362.240,217.875 362.282 M216.375 362.448 C 216.535 362.490,216.798 362.490,216.958 362.448 C 217.119 362.406,216.987 362.372,216.667 362.372 C 216.346 362.372,216.215 362.406,216.375 362.448 M172.542 362.615 C 172.702 362.657,172.965 362.657,173.125 362.615 C 173.285 362.573,173.154 362.539,172.833 362.539 C 172.512 362.539,172.381 362.573,172.542 362.615 M214.542 362.615 C 214.702 362.657,214.965 362.657,215.125 362.615 C 215.285 362.573,215.154 362.539,214.833 362.539 C 214.512 362.539,214.381 362.573,214.542 362.615 M174.542 362.782 C 174.702 362.823,174.965 362.823,175.125 362.782 C 175.285 362.740,175.154 362.705,174.833 362.705 C 174.512 362.705,174.381 362.740,174.542 362.782 M176.460 362.951 C 176.668 362.991,176.968 362.990,177.127 362.948 C 177.286 362.906,177.117 362.874,176.750 362.875 C 176.383 362.877,176.253 362.911,176.460 362.951 M210.627 362.951 C 210.834 362.991,211.134 362.990,211.294 362.948 C 211.453 362.906,211.283 362.874,210.917 362.875 C 210.550 362.877,210.420 362.911,210.627 362.951 M179.042 363.115 C 179.202 363.157,179.465 363.157,179.625 363.115 C 179.785 363.073,179.654 363.039,179.333 363.039 C 179.012 363.039,178.881 363.073,179.042 363.115 M181.875 363.282 C 182.035 363.323,182.298 363.323,182.458 363.282 C 182.619 363.240,182.487 363.205,182.167 363.205 C 181.846 363.205,181.715 363.240,181.875 363.282 M205.127 363.285 C 205.334 363.324,205.634 363.323,205.794 363.281 C 205.953 363.239,205.783 363.207,205.417 363.209 C 205.050 363.211,204.920 363.245,205.127 363.285 M185.375 363.453 C 185.627 363.491,186.040 363.491,186.292 363.453 C 186.544 363.415,186.338 363.383,185.833 363.383 C 185.329 363.383,185.123 363.415,185.375 363.453 M201.377 363.453 C 201.631 363.491,202.006 363.490,202.211 363.451 C 202.416 363.411,202.208 363.380,201.750 363.381 C 201.292 363.382,201.124 363.415,201.377 363.453 M182.960 372.118 C 183.168 372.158,183.468 372.156,183.627 372.115 C 183.786 372.073,183.617 372.040,183.250 372.042 C 182.883 372.044,182.753 372.078,182.960 372.118 M205.042 372.115 C 205.202 372.157,205.465 372.157,205.625 372.115 C 205.785 372.073,205.654 372.039,205.333 372.039 C 205.012 372.039,204.881 372.073,205.042 372.115 M186.875 372.286 C 187.127 372.324,187.540 372.324,187.792 372.286 C 188.044 372.248,187.838 372.217,187.333 372.217 C 186.829 372.217,186.623 372.248,186.875 372.286 M200.795 372.287 C 201.094 372.325,201.544 372.324,201.795 372.286 C 202.045 372.248,201.800 372.217,201.250 372.218 C 200.700 372.219,200.495 372.250,200.795 372.287 " stroke="none" fill="#46c6b7" fill-rule="evenodd"/><path id="path2" d="M156.972 34.549 C 154.854 36.165,154.856 39.766,156.978 46.074 C 157.254 46.894,157.442 47.626,157.397 47.699 C 157.351 47.773,157.421 47.833,157.553 47.833 C 157.945 47.833,162.128 50.694,163.833 52.129 C 170.001 57.316,174.084 63.428,175.737 69.948 C 177.558 77.133,173.007 78.676,147.333 79.582 C 127.596 80.278,118.211 81.007,108.500 82.600 C 97.366 84.426,87.152 87.766,80.268 91.832 C 79.486 92.294,78.783 92.652,78.704 92.627 C 78.427 92.542,73.198 98.214,69.986 102.083 C 62.370 111.258,55.612 121.647,50.633 131.833 C 47.799 137.631,47.733 137.425,51.292 133.891 C 70.764 114.551,92.561 102.150,118.176 95.836 C 128.678 93.248,137.235 92.273,153.333 91.834 C 170.733 91.358,180.586 88.926,185.038 84.006 C 187.759 80.999,187.932 78.223,185.910 70.048 C 182.212 55.105,172.618 42.111,159.924 34.854 C 158.166 33.849,157.923 33.824,156.972 34.549 M147.583 50.500 C 147.373 50.590,147.342 50.643,147.500 50.643 C 147.637 50.643,147.900 50.579,148.083 50.500 C 148.293 50.410,148.324 50.357,148.167 50.357 C 148.029 50.357,147.767 50.421,147.583 50.500 M118.792 62.511 C 118.448 62.693,118.167 62.879,118.167 62.924 C 118.167 62.970,118.467 62.854,118.833 62.667 C 119.200 62.480,119.500 62.291,119.500 62.247 C 119.500 62.138,119.499 62.138,118.792 62.511 M86.406 85.042 L 85.917 85.583 86.458 85.094 C 86.756 84.825,87.000 84.581,87.000 84.552 C 87.000 84.423,86.862 84.537,86.406 85.042 M84.909 86.375 L 84.250 87.083 84.958 86.425 C 85.617 85.812,85.743 85.667,85.617 85.667 C 85.590 85.667,85.271 85.985,84.909 86.375 M82.080 89.042 L 80.583 90.583 82.125 89.087 C 83.557 87.697,83.743 87.500,83.622 87.500 C 83.597 87.500,82.903 88.194,82.080 89.042 M181.875 100.458 C 184.235 100.484,188.098 100.484,190.458 100.458 C 192.819 100.432,190.887 100.411,186.167 100.411 C 181.446 100.411,179.515 100.432,181.875 100.458 M172.458 100.622 C 172.848 100.657,173.485 100.657,173.875 100.622 C 174.265 100.587,173.946 100.558,173.167 100.558 C 172.387 100.558,172.069 100.587,172.458 100.622 M198.880 100.623 C 199.318 100.657,199.993 100.657,200.380 100.622 C 200.767 100.587,200.408 100.559,199.583 100.559 C 198.758 100.560,198.442 100.588,198.880 100.623 M168.042 100.788 C 168.385 100.824,168.948 100.824,169.292 100.788 C 169.635 100.752,169.354 100.723,168.667 100.723 C 167.979 100.723,167.698 100.752,168.042 100.788 M204.047 100.789 C 204.485 100.824,205.160 100.823,205.547 100.788 C 205.934 100.754,205.575 100.725,204.750 100.726 C 203.925 100.726,203.609 100.755,204.047 100.789 M164.958 100.954 C 165.256 100.991,165.744 100.991,166.042 100.954 C 166.340 100.917,166.096 100.887,165.500 100.887 C 164.904 100.887,164.660 100.917,164.958 100.954 M207.875 100.955 C 208.219 100.991,208.781 100.991,209.125 100.955 C 209.469 100.919,209.188 100.889,208.500 100.889 C 207.813 100.889,207.531 100.919,207.875 100.955 M161.788 101.120 C 162.084 101.157,162.609 101.158,162.955 101.122 C 163.300 101.086,163.058 101.055,162.417 101.055 C 161.775 101.054,161.492 101.083,161.788 101.120 M211.458 101.122 C 211.848 101.157,212.485 101.157,212.875 101.122 C 213.265 101.087,212.946 101.058,212.167 101.058 C 211.387 101.058,211.069 101.087,211.458 101.122 M157.833 101.333 L 156.750 101.442 157.667 101.449 C 158.171 101.453,159.146 101.403,159.833 101.338 L 161.083 101.221 160.000 101.222 C 159.404 101.223,158.429 101.273,157.833 101.333 M215.500 101.342 C 216.371 101.408,217.571 101.459,218.167 101.455 C 219.155 101.448,219.119 101.436,217.750 101.325 C 216.925 101.257,215.725 101.206,215.083 101.211 C 213.982 101.220,214.006 101.227,215.500 101.342 M153.167 101.729 C 152.204 101.827,151.642 101.929,151.917 101.955 C 152.192 101.981,153.392 101.898,154.583 101.771 C 155.775 101.644,156.337 101.542,155.833 101.544 C 155.329 101.547,154.129 101.630,153.167 101.729 M221.750 101.757 C 223.125 101.873,224.625 101.965,225.083 101.961 C 225.542 101.956,224.867 101.857,223.583 101.740 C 222.300 101.623,220.800 101.531,220.250 101.536 C 219.700 101.541,220.375 101.640,221.750 101.757 M150.292 102.118 C 150.498 102.157,150.835 102.157,151.042 102.118 C 151.248 102.078,151.079 102.045,150.667 102.045 C 150.254 102.045,150.085 102.078,150.292 102.118 M226.458 102.121 C 226.756 102.158,227.244 102.158,227.542 102.121 C 227.840 102.084,227.596 102.053,227.000 102.053 C 226.404 102.053,226.160 102.084,226.458 102.121 M148.792 102.284 C 148.998 102.324,149.335 102.324,149.542 102.284 C 149.748 102.245,149.579 102.212,149.167 102.212 C 148.754 102.212,148.585 102.245,148.792 102.284 M229.083 102.340 C 229.633 102.408,230.421 102.461,230.833 102.457 C 231.515 102.452,231.492 102.440,230.583 102.327 C 230.033 102.259,229.246 102.206,228.833 102.209 C 228.152 102.215,228.175 102.227,229.083 102.340 M147.460 102.451 C 147.668 102.491,147.968 102.490,148.127 102.448 C 148.286 102.406,148.117 102.374,147.750 102.375 C 147.383 102.377,147.253 102.411,147.460 102.451 M146.042 102.615 C 146.202 102.657,146.465 102.657,146.625 102.615 C 146.785 102.573,146.654 102.539,146.333 102.539 C 146.012 102.539,145.881 102.573,146.042 102.615 M232.125 102.618 C 232.331 102.657,232.669 102.657,232.875 102.618 C 233.081 102.578,232.912 102.545,232.500 102.545 C 232.088 102.545,231.919 102.578,232.125 102.618 M233.794 102.785 C 234.001 102.824,234.301 102.823,234.460 102.781 C 234.620 102.739,234.450 102.707,234.083 102.709 C 233.717 102.711,233.586 102.745,233.794 102.785 M235.375 102.948 C 235.535 102.990,235.798 102.990,235.958 102.948 C 236.119 102.906,235.987 102.872,235.667 102.872 C 235.346 102.872,235.215 102.906,235.375 102.948 M236.875 103.115 C 237.035 103.157,237.298 103.157,237.458 103.115 C 237.619 103.073,237.487 103.039,237.167 103.039 C 236.846 103.039,236.715 103.073,236.875 103.115 M129.167 105.333 C 128.606 105.513,129.212 105.513,129.917 105.333 C 130.366 105.219,130.374 105.206,130.000 105.203 C 129.771 105.201,129.396 105.260,129.167 105.333 M126.917 105.828 C 126.275 105.993,125.862 106.134,126.000 106.141 C 126.138 106.147,126.813 106.014,127.500 105.844 C 128.188 105.674,128.600 105.533,128.417 105.531 C 128.233 105.529,127.558 105.662,126.917 105.828 M255.917 105.833 C 256.192 105.903,256.604 105.961,256.833 105.961 C 257.205 105.961,257.196 105.947,256.750 105.833 C 256.475 105.763,256.063 105.706,255.833 105.706 C 255.462 105.706,255.471 105.720,255.917 105.833 M257.750 106.167 C 258.025 106.237,258.438 106.294,258.667 106.294 C 259.038 106.294,259.029 106.280,258.583 106.167 C 258.308 106.097,257.896 106.039,257.667 106.039 C 257.295 106.039,257.304 106.053,257.750 106.167 M124.667 106.333 C 124.337 106.439,124.319 106.467,124.583 106.467 C 124.767 106.467,125.104 106.407,125.333 106.333 C 125.663 106.228,125.681 106.200,125.417 106.200 C 125.233 106.200,124.896 106.260,124.667 106.333 M111.865 109.947 C 110.644 110.362,109.674 110.730,109.709 110.765 C 109.744 110.800,110.855 110.460,112.178 110.010 C 113.501 109.560,114.471 109.192,114.333 109.193 C 114.196 109.193,113.085 109.532,111.865 109.947 M272.833 109.376 C 272.955 109.506,277.532 110.690,277.611 110.612 C 277.647 110.575,276.793 110.314,275.713 110.031 C 273.202 109.373,272.731 109.266,272.833 109.376 M278.083 110.833 C 278.267 110.912,278.529 110.977,278.667 110.977 C 278.824 110.977,278.793 110.924,278.583 110.833 C 278.400 110.755,278.137 110.690,278.000 110.690 C 277.842 110.690,277.873 110.743,278.083 110.833 M102.036 113.700 C 101.185 114.073,100.516 114.405,100.550 114.439 C 100.608 114.497,103.676 113.212,103.819 113.069 C 104.005 112.884,103.446 113.082,102.036 113.700 M286.905 113.594 C 287.815 113.907,288.588 114.134,288.624 114.099 C 288.699 114.023,285.660 112.994,285.416 113.013 C 285.325 113.020,285.995 113.281,286.905 113.594 M206.267 113.805 C 206.175 113.954,207.976 114.580,208.110 114.446 C 208.154 114.401,207.941 114.304,207.637 114.229 L 207.083 114.093 207.833 113.981 L 208.583 113.869 207.712 113.883 C 207.233 113.890,206.789 113.845,206.726 113.782 C 206.571 113.626,206.372 113.637,206.267 113.805 M209.292 114.118 C 209.498 114.157,209.835 114.157,210.042 114.118 C 210.248 114.078,210.079 114.045,209.667 114.045 C 209.254 114.045,209.085 114.078,209.292 114.118 M211.125 114.284 C 211.331 114.324,211.669 114.324,211.875 114.284 C 212.081 114.245,211.912 114.212,211.500 114.212 C 211.088 114.212,210.919 114.245,211.125 114.284 M289.250 114.398 C 289.525 114.523,289.938 114.671,290.167 114.728 C 290.501 114.810,290.485 114.785,290.083 114.602 C 289.808 114.477,289.396 114.329,289.167 114.272 C 288.832 114.190,288.848 114.215,289.250 114.398 M212.794 114.451 C 213.001 114.491,213.301 114.490,213.460 114.448 C 213.620 114.406,213.450 114.374,213.083 114.375 C 212.717 114.377,212.586 114.411,212.794 114.451 M99.667 114.750 C 99.438 114.881,99.325 114.988,99.417 114.988 C 99.508 114.988,99.771 114.881,100.000 114.750 C 100.229 114.619,100.342 114.512,100.250 114.512 C 100.158 114.512,99.896 114.619,99.667 114.750 M214.375 114.615 C 214.535 114.657,214.798 114.657,214.958 114.615 C 215.119 114.573,214.987 114.539,214.667 114.539 C 214.346 114.539,214.215 114.573,214.375 114.615 M297.314 117.586 C 297.991 117.911,298.574 118.148,298.610 118.112 C 298.646 118.076,298.204 117.841,297.629 117.590 C 296.081 116.912,295.907 116.910,297.314 117.586 M93.792 117.677 C 93.265 117.949,92.833 118.209,92.833 118.255 C 92.833 118.301,93.283 118.111,93.833 117.833 C 94.383 117.556,94.833 117.292,94.833 117.248 C 94.833 117.136,94.864 117.124,93.792 117.677 M217.500 117.550 C 217.500 117.663,219.539 118.350,219.623 118.266 C 219.659 118.230,219.290 118.070,218.802 117.909 C 218.315 117.749,217.823 117.584,217.708 117.541 C 217.594 117.499,217.500 117.503,217.500 117.550 M299.167 118.417 C 299.396 118.548,299.658 118.655,299.750 118.655 C 299.842 118.655,299.729 118.548,299.500 118.417 C 299.271 118.286,299.008 118.178,298.917 118.178 C 298.825 118.178,298.938 118.286,299.167 118.417 M92.125 118.595 C 91.502 118.933,91.540 119.074,92.167 118.750 C 92.442 118.608,92.667 118.456,92.667 118.412 C 92.667 118.305,92.649 118.311,92.125 118.595 M301.681 119.562 C 301.852 119.716,302.833 120.167,302.833 120.092 C 302.833 119.996,301.909 119.500,301.730 119.500 C 301.665 119.500,301.642 119.528,301.681 119.562 M303.014 120.222 C 303.247 120.409,308.052 122.835,307.917 122.698 C 307.712 122.490,303.276 120.167,303.083 120.167 C 303.007 120.167,302.976 120.192,303.014 120.222 M86.457 122.086 C 85.564 122.683,84.833 123.210,84.833 123.257 C 84.833 123.339,87.758 121.434,88.075 121.144 C 88.470 120.784,87.958 121.082,86.457 122.086 M81.375 125.754 C 80.619 126.351,80.000 126.876,80.000 126.921 C 80.000 126.966,80.637 126.503,81.417 125.893 C 82.667 124.913,82.948 124.663,82.792 124.668 C 82.769 124.669,82.131 125.158,81.375 125.754 M311.833 125.059 C 311.833 125.103,312.227 125.380,312.708 125.676 C 313.190 125.972,313.752 126.325,313.958 126.460 C 314.165 126.595,314.333 126.666,314.333 126.617 C 314.333 126.569,313.865 126.237,313.292 125.878 C 311.886 124.998,311.833 124.969,311.833 125.059 M77.167 129.349 L 75.750 130.695 77.208 129.404 C 78.513 128.248,78.767 127.997,78.625 128.001 C 78.602 128.002,77.946 128.608,77.167 129.349 M141.708 129.115 C 141.869 129.157,142.131 129.157,142.292 129.115 C 142.452 129.073,142.321 129.039,142.000 129.039 C 141.679 129.039,141.548 129.073,141.708 129.115 M317.833 129.053 C 317.833 129.093,318.265 129.450,318.792 129.846 C 319.319 130.241,319.660 130.453,319.549 130.316 C 319.323 130.036,317.833 128.939,317.833 129.053 M113.958 130.429 C 113.706 130.565,113.500 130.715,113.500 130.761 C 113.500 130.807,113.669 130.753,113.875 130.640 C 114.081 130.527,114.550 130.384,114.917 130.322 L 115.583 130.208 115.000 130.194 C 114.679 130.186,114.210 130.292,113.958 130.429 M74.245 132.042 C 72.372 134.001,71.250 135.239,71.644 134.911 C 72.093 134.538,75.405 131.000,75.305 131.000 C 75.270 131.000,74.792 131.469,74.245 132.042 M138.240 131.875 L 137.750 132.417 138.292 131.927 C 138.590 131.658,138.833 131.414,138.833 131.385 C 138.833 131.257,138.696 131.370,138.240 131.875 M322.333 132.543 C 322.333 132.584,322.877 133.097,323.542 133.682 C 324.206 134.267,324.645 134.613,324.518 134.452 C 324.240 134.101,322.333 132.434,322.333 132.543 M123.000 133.245 C 123.000 133.291,123.450 133.556,124.000 133.833 C 124.550 134.111,125.000 134.301,125.000 134.255 C 125.000 134.209,124.550 133.944,124.000 133.667 C 123.450 133.389,123.000 133.199,123.000 133.245 M289.667 134.000 C 290.171 134.266,290.658 134.484,290.750 134.484 C 290.842 134.484,290.504 134.266,290.000 134.000 C 289.496 133.734,289.008 133.516,288.917 133.516 C 288.825 133.516,289.162 133.734,289.667 134.000 M327.507 137.407 C 328.932 138.879,330.571 140.608,331.150 141.250 C 331.980 142.170,332.049 142.223,331.476 141.500 C 331.077 140.996,329.438 139.266,327.833 137.657 L 324.917 134.731 327.507 137.407 M70.295 136.375 C 69.225 137.614,67.992 139.187,68.368 138.833 C 68.743 138.480,71.347 135.333,71.263 135.333 C 71.226 135.333,70.790 135.802,70.295 136.375 M158.000 137.750 C 158.498 138.254,158.943 138.667,158.989 138.667 C 159.034 138.667,158.665 138.254,158.167 137.750 C 157.669 137.246,157.224 136.833,157.178 136.833 C 157.132 136.833,157.502 137.246,158.000 137.750 M129.833 137.386 C 129.833 137.427,130.109 137.670,130.445 137.927 C 130.782 138.184,131.004 138.309,130.940 138.205 C 130.808 137.991,129.833 137.270,129.833 137.386 M268.500 137.917 C 268.729 138.048,268.992 138.155,269.083 138.155 C 269.175 138.155,269.063 138.048,268.833 137.917 C 268.604 137.786,268.342 137.678,268.250 137.678 C 268.158 137.678,268.271 137.786,268.500 137.917 M353.489 138.542 C 353.570 138.748,354.271 140.492,355.047 142.417 C 368.076 174.728,368.532 212.896,356.275 245.049 C 355.722 246.499,355.475 246.417,360.417 246.414 C 373.317 246.403,380.117 241.075,385.561 226.714 C 386.492 224.259,386.486 224.400,385.671 224.270 C 379.478 223.280,373.710 218.078,371.582 211.564 C 370.587 208.518,370.523 207.145,371.011 199.333 C 372.165 180.886,367.925 159.217,359.760 141.829 C 358.085 138.261,358.248 138.454,356.789 138.308 C 354.233 138.052,353.322 138.116,353.489 138.542 M38.333 138.836 C 34.904 139.299,29.625 140.302,29.421 140.529 C 29.394 140.559,28.885 141.333,28.288 142.250 C 16.497 160.381,10.662 188.305,12.344 218.550 L 12.500 221.349 13.742 224.722 C 15.116 228.455,16.310 231.247,17.250 232.927 L 17.869 234.034 18.809 233.928 C 26.105 233.107,29.054 226.206,27.930 212.583 C 26.154 191.062,31.167 164.648,41.949 138.708 C 42.067 138.425,41.138 138.458,38.333 138.836 M159.167 138.885 C 159.167 138.914,159.410 139.158,159.708 139.427 L 160.250 139.917 159.760 139.375 C 159.304 138.870,159.167 138.757,159.167 138.885 M276.167 141.583 C 276.762 141.895,277.325 142.150,277.417 142.150 C 277.508 142.150,277.096 141.895,276.500 141.583 C 275.904 141.271,275.342 141.016,275.250 141.016 C 275.158 141.016,275.571 141.271,276.167 141.583 M65.869 142.125 C 65.084 143.292,64.961 143.500,65.049 143.500 C 65.087 143.500,65.467 142.975,65.894 142.333 C 66.320 141.692,66.634 141.167,66.591 141.167 C 66.548 141.167,66.223 141.598,65.869 142.125 M303.083 141.453 C 303.346 141.718,305.833 143.353,305.833 143.260 C 305.833 143.214,305.290 142.813,304.625 142.368 C 303.250 141.448,302.833 141.200,303.083 141.453 M161.050 142.500 C 161.050 143.004,161.081 143.210,161.119 142.958 C 161.158 142.706,161.158 142.294,161.119 142.042 C 161.081 141.790,161.050 141.996,161.050 142.500 M104.717 143.833 C 104.717 144.337,104.748 144.544,104.786 144.292 C 104.824 144.040,104.824 143.627,104.786 143.375 C 104.748 143.123,104.717 143.329,104.717 143.833 M334.673 145.735 C 334.987 146.171,335.315 146.572,335.403 146.626 C 335.491 146.681,335.306 146.368,334.993 145.932 C 334.680 145.496,334.352 145.095,334.264 145.040 C 334.176 144.986,334.360 145.298,334.673 145.735 M285.500 146.243 C 285.500 146.289,285.800 146.480,286.167 146.667 C 286.533 146.854,286.833 146.969,286.833 146.923 C 286.833 146.878,286.533 146.687,286.167 146.500 C 285.800 146.313,285.500 146.197,285.500 146.243 M62.500 147.500 C 62.313 147.867,62.197 148.167,62.243 148.167 C 62.289 148.167,62.480 147.867,62.667 147.500 C 62.854 147.133,62.969 146.833,62.923 146.833 C 62.878 146.833,62.687 147.133,62.500 147.500 M157.246 149.042 L 156.083 150.250 157.292 149.088 C 158.414 148.008,158.576 147.833,158.454 147.833 C 158.428 147.833,157.885 148.377,157.246 149.042 M61.417 149.500 C 61.094 150.142,60.867 150.667,60.912 150.667 C 60.958 150.667,61.260 150.142,61.583 149.500 C 61.906 148.858,62.133 148.333,62.088 148.333 C 62.042 148.333,61.740 148.858,61.417 149.500 M106.750 149.000 C 107.108 149.367,107.438 149.667,107.484 149.667 C 107.530 149.667,107.275 149.367,106.917 149.000 C 106.559 148.633,106.228 148.333,106.182 148.333 C 106.137 148.333,106.392 148.633,106.750 149.000 M337.117 149.214 C 337.190 149.332,337.690 150.157,338.229 151.048 C 339.115 152.514,339.646 153.233,339.146 152.292 C 338.736 151.520,337.143 149.000,337.065 149.000 C 337.020 149.000,337.043 149.097,337.117 149.214 M291.333 149.408 C 291.333 149.454,291.558 149.608,291.833 149.750 C 292.108 149.892,292.333 149.971,292.333 149.925 C 292.333 149.879,292.108 149.726,291.833 149.583 C 291.558 149.441,291.333 149.362,291.333 149.408 M314.000 149.552 C 314.000 149.581,314.244 149.825,314.542 150.094 L 315.083 150.583 314.594 150.042 C 314.138 149.537,314.000 149.423,314.000 149.552 M142.583 151.667 C 143.128 152.217,143.610 152.667,143.656 152.667 C 143.702 152.667,143.294 152.217,142.750 151.667 C 142.206 151.117,141.723 150.667,141.677 150.667 C 141.631 150.667,142.039 151.117,142.583 151.667 M315.333 150.719 C 315.333 150.748,315.577 150.991,315.875 151.260 L 316.417 151.750 315.927 151.208 C 315.471 150.703,315.333 150.590,315.333 150.719 M132.000 152.417 C 131.595 152.829,131.301 153.167,131.347 153.167 C 131.393 153.167,131.762 152.829,132.167 152.417 C 132.572 152.004,132.865 151.667,132.819 151.667 C 132.774 151.667,132.405 152.004,132.000 152.417 M318.500 153.750 C 319.091 154.346,319.611 154.833,319.657 154.833 C 319.703 154.833,319.257 154.346,318.667 153.750 C 318.076 153.154,317.555 152.667,317.510 152.667 C 317.464 152.667,317.909 153.154,318.500 153.750 M130.240 154.042 L 129.750 154.583 130.292 154.094 C 130.590 153.825,130.833 153.581,130.833 153.552 C 130.833 153.423,130.696 153.537,130.240 154.042 M57.599 157.932 C 57.260 158.816,57.012 159.567,57.046 159.602 C 57.080 159.636,57.385 158.940,57.722 158.056 C 58.060 157.171,58.308 156.420,58.275 156.386 C 58.241 156.352,57.937 157.048,57.599 157.932 M321.000 156.385 C 321.000 156.414,321.244 156.658,321.542 156.927 L 322.083 157.417 321.594 156.875 C 321.138 156.370,321.000 156.257,321.000 156.385 M341.701 157.422 C 341.831 157.874,343.400 161.322,343.452 161.270 C 343.523 161.199,342.345 158.461,341.938 157.750 C 341.780 157.475,341.673 157.327,341.701 157.422 M311.667 162.061 C 311.667 162.106,311.892 162.304,312.167 162.500 C 312.442 162.696,312.667 162.819,312.667 162.773 C 312.667 162.727,312.442 162.529,312.167 162.333 C 311.892 162.138,311.667 162.015,311.667 162.061 M326.167 162.667 C 326.362 162.942,326.560 163.167,326.606 163.167 C 326.652 163.167,326.529 162.942,326.333 162.667 C 326.138 162.392,325.940 162.167,325.894 162.167 C 325.848 162.167,325.971 162.392,326.167 162.667 M226.875 165.953 C 227.127 165.991,227.540 165.991,227.792 165.953 C 228.044 165.915,227.838 165.883,227.333 165.883 C 226.829 165.883,226.623 165.915,226.875 165.953 M222.788 166.120 C 223.084 166.157,223.609 166.158,223.955 166.122 C 224.300 166.086,224.058 166.055,223.417 166.055 C 222.775 166.054,222.492 166.083,222.788 166.120 M230.963 166.122 C 231.355 166.157,231.955 166.157,232.296 166.121 C 232.637 166.085,232.317 166.057,231.583 166.057 C 230.850 166.058,230.571 166.087,230.963 166.122 M345.192 166.167 C 345.192 166.304,345.293 166.679,345.417 167.000 C 345.540 167.321,345.641 167.471,345.641 167.333 C 345.641 167.196,345.540 166.821,345.417 166.500 C 345.293 166.179,345.192 166.029,345.192 166.167 M220.625 166.284 C 220.831 166.324,221.169 166.324,221.375 166.284 C 221.581 166.245,221.412 166.212,221.000 166.212 C 220.588 166.212,220.419 166.245,220.625 166.284 M233.708 166.286 C 233.960 166.324,234.373 166.324,234.625 166.286 C 234.877 166.248,234.671 166.217,234.167 166.217 C 233.662 166.217,233.456 166.248,233.708 166.286 M219.208 166.448 C 219.369 166.490,219.631 166.490,219.792 166.448 C 219.952 166.406,219.821 166.372,219.500 166.372 C 219.179 166.372,219.048 166.406,219.208 166.448 M235.625 166.451 C 235.831 166.491,236.169 166.491,236.375 166.451 C 236.581 166.411,236.412 166.379,236.000 166.379 C 235.588 166.379,235.419 166.411,235.625 166.451 M237.375 166.615 C 237.535 166.657,237.798 166.657,237.958 166.615 C 238.119 166.573,237.987 166.539,237.667 166.539 C 237.346 166.539,237.215 166.573,237.375 166.615 M345.692 167.833 C 345.692 167.971,345.793 168.346,345.917 168.667 C 346.040 168.987,346.141 169.137,346.141 169.000 C 346.141 168.862,346.040 168.487,345.917 168.167 C 345.793 167.846,345.692 167.696,345.692 167.833 M330.083 168.667 C 330.226 168.942,330.379 169.167,330.425 169.167 C 330.471 169.167,330.392 168.942,330.250 168.667 C 330.108 168.392,329.954 168.167,329.908 168.167 C 329.862 168.167,329.941 168.392,330.083 168.667 M134.713 169.289 C 135.152 169.324,135.827 169.323,136.213 169.288 C 136.600 169.254,136.242 169.225,135.417 169.226 C 134.592 169.226,134.275 169.255,134.713 169.289 M144.213 169.289 C 144.652 169.324,145.327 169.323,145.713 169.288 C 146.100 169.254,145.742 169.225,144.917 169.226 C 144.092 169.226,143.775 169.255,144.213 169.289 M131.877 169.453 C 132.131 169.491,132.506 169.490,132.711 169.451 C 132.916 169.411,132.708 169.380,132.250 169.381 C 131.792 169.382,131.624 169.415,131.877 169.453 M147.961 169.454 C 148.261 169.491,148.711 169.490,148.961 169.452 C 149.212 169.414,148.967 169.384,148.417 169.385 C 147.867 169.386,147.662 169.417,147.961 169.454 M346.171 169.431 C 346.179 169.731,347.137 173.245,347.152 173.030 C 347.169 172.779,346.343 169.454,346.237 169.348 C 346.198 169.309,346.169 169.347,346.171 169.431 M53.754 170.921 C 53.590 171.704,53.488 172.377,53.528 172.417 C 53.568 172.457,53.734 171.848,53.897 171.063 C 54.060 170.279,54.162 169.606,54.123 169.567 C 54.084 169.529,53.918 170.138,53.754 170.921 M129.544 169.620 C 129.797 169.658,130.172 169.657,130.377 169.617 C 130.582 169.578,130.375 169.546,129.917 169.548 C 129.458 169.549,129.291 169.581,129.544 169.620 M150.544 169.620 C 150.797 169.658,151.172 169.657,151.377 169.617 C 151.582 169.578,151.375 169.546,150.917 169.548 C 150.458 169.549,150.291 169.581,150.544 169.620 M127.794 169.785 C 128.001 169.824,128.301 169.823,128.460 169.781 C 128.620 169.739,128.450 169.707,128.083 169.709 C 127.717 169.711,127.586 169.745,127.794 169.785 M152.625 169.784 C 152.831 169.824,153.169 169.824,153.375 169.784 C 153.581 169.745,153.412 169.712,153.000 169.712 C 152.587 169.712,152.419 169.745,152.625 169.784 M330.917 170.167 C 331.059 170.442,331.213 170.667,331.259 170.667 C 331.304 170.667,331.226 170.442,331.083 170.167 C 330.941 169.892,330.787 169.667,330.741 169.667 C 330.696 169.667,330.774 169.892,330.917 170.167 M126.294 169.951 C 126.501 169.991,126.801 169.990,126.960 169.948 C 127.120 169.906,126.950 169.874,126.583 169.875 C 126.217 169.877,126.086 169.911,126.294 169.951 M154.292 169.951 C 154.498 169.991,154.835 169.991,155.042 169.951 C 155.248 169.911,155.079 169.879,154.667 169.879 C 154.254 169.879,154.085 169.911,154.292 169.951 M124.875 170.115 C 125.035 170.157,125.298 170.157,125.458 170.115 C 125.619 170.073,125.487 170.039,125.167 170.039 C 124.846 170.039,124.715 170.073,124.875 170.115 M155.960 170.118 C 156.168 170.158,156.468 170.156,156.627 170.115 C 156.786 170.073,156.617 170.040,156.250 170.042 C 155.883 170.044,155.753 170.078,155.960 170.118 M123.708 170.282 C 123.869 170.323,124.131 170.323,124.292 170.282 C 124.452 170.240,124.321 170.205,124.000 170.205 C 123.679 170.205,123.548 170.240,123.708 170.282 M157.375 170.282 C 157.535 170.323,157.798 170.323,157.958 170.282 C 158.119 170.240,157.987 170.205,157.667 170.205 C 157.346 170.205,157.215 170.240,157.375 170.282 M158.708 170.448 C 158.869 170.490,159.131 170.490,159.292 170.448 C 159.452 170.406,159.321 170.372,159.000 170.372 C 158.679 170.372,158.548 170.406,158.708 170.448 M203.667 170.833 C 203.346 171.009,203.158 171.153,203.250 171.153 C 203.342 171.153,203.679 171.009,204.000 170.833 C 204.321 170.658,204.508 170.514,204.417 170.514 C 204.325 170.514,203.987 170.658,203.667 170.833 M162.365 170.936 C 162.520 170.983,162.684 171.147,162.730 171.302 C 162.791 171.506,162.805 171.492,162.780 171.252 C 162.760 171.058,162.609 170.906,162.415 170.886 C 162.174 170.862,162.161 170.876,162.365 170.936 M325.583 173.333 C 326.035 173.792,326.442 174.167,326.487 174.167 C 326.533 174.167,326.201 173.792,325.750 173.333 C 325.299 172.875,324.892 172.500,324.846 172.500 C 324.800 172.500,325.132 172.875,325.583 173.333 M53.091 174.258 C 53.027 174.683,53.009 175.065,53.051 175.106 C 53.092 175.148,53.179 174.834,53.242 174.409 C 53.306 173.984,53.324 173.602,53.283 173.560 C 53.241 173.519,53.155 173.832,53.091 174.258 M106.917 174.423 C 106.500 174.623,106.486 174.646,106.833 174.562 C 107.306 174.446,107.836 174.176,107.583 174.179 C 107.492 174.181,107.192 174.290,106.917 174.423 M163.379 176.333 C 163.379 176.746,163.411 176.915,163.451 176.708 C 163.491 176.502,163.491 176.165,163.451 175.958 C 163.411 175.752,163.379 175.921,163.379 176.333 M334.096 177.167 C 334.157 177.396,334.276 177.696,334.361 177.833 C 334.469 178.007,334.482 177.956,334.404 177.667 C 334.343 177.438,334.224 177.137,334.139 177.000 C 334.031 176.826,334.018 176.877,334.096 177.167 M192.747 178.708 L 191.083 180.417 192.792 178.753 C 194.378 177.208,194.576 177.000,194.455 177.000 C 194.431 177.000,193.662 177.769,192.747 178.708 M330.326 178.042 C 331.017 178.778,331.167 178.910,331.167 178.785 C 331.167 178.758,330.810 178.402,330.375 177.993 L 329.583 177.250 330.326 178.042 M98.958 177.928 C 98.523 178.154,98.167 178.377,98.167 178.423 C 98.167 178.468,98.542 178.316,99.000 178.083 C 99.458 177.851,99.833 177.625,99.833 177.581 C 99.833 177.470,99.848 177.464,98.958 177.928 M163.375 180.583 C 163.377 180.950,163.411 181.080,163.451 180.873 C 163.491 180.666,163.490 180.366,163.448 180.206 C 163.406 180.047,163.374 180.217,163.375 180.583 M289.833 182.083 C 290.063 182.214,290.325 182.322,290.417 182.322 C 290.508 182.322,290.396 182.214,290.167 182.083 C 289.938 181.952,289.675 181.845,289.583 181.845 C 289.492 181.845,289.604 181.952,289.833 182.083 M51.872 183.667 C 51.872 183.987,51.906 184.119,51.948 183.958 C 51.990 183.798,51.990 183.535,51.948 183.375 C 51.906 183.215,51.872 183.346,51.872 183.667 M336.000 184.427 C 336.000 184.590,335.923 184.640,335.792 184.561 C 335.650 184.476,335.657 184.526,335.812 184.718 C 336.100 185.073,336.087 185.078,336.128 184.583 C 336.147 184.354,336.126 184.167,336.081 184.167 C 336.037 184.167,336.000 184.284,336.000 184.427 M88.906 184.875 L 88.417 185.417 88.958 184.927 C 89.463 184.471,89.577 184.333,89.448 184.333 C 89.419 184.333,89.175 184.577,88.906 184.875 M349.039 185.167 C 349.039 185.487,349.073 185.619,349.115 185.458 C 349.157 185.298,349.157 185.035,349.115 184.875 C 349.073 184.715,349.039 184.846,349.039 185.167 M51.709 185.583 C 51.711 185.950,51.745 186.080,51.785 185.873 C 51.824 185.666,51.823 185.366,51.781 185.206 C 51.739 185.047,51.707 185.217,51.709 185.583 M298.333 186.083 C 298.929 186.395,299.492 186.650,299.583 186.650 C 299.675 186.650,299.262 186.395,298.667 186.083 C 298.071 185.771,297.508 185.516,297.417 185.516 C 297.325 185.516,297.737 185.771,298.333 186.083 M86.829 186.792 L 85.750 187.917 86.875 186.838 C 87.920 185.836,88.076 185.667,87.954 185.667 C 87.928 185.667,87.422 186.173,86.829 186.792 M349.214 187.250 C 349.216 187.708,349.248 187.876,349.286 187.623 C 349.325 187.369,349.324 186.994,349.284 186.789 C 349.244 186.584,349.213 186.792,349.214 187.250 M185.917 187.667 C 185.774 187.942,185.696 188.167,185.741 188.167 C 185.787 188.167,185.941 187.942,186.083 187.667 C 186.226 187.392,186.304 187.167,186.259 187.167 C 186.213 187.167,186.059 187.392,185.917 187.667 M51.548 188.083 C 51.549 188.542,51.581 188.709,51.620 188.456 C 51.658 188.203,51.657 187.828,51.617 187.623 C 51.578 187.418,51.546 187.625,51.548 188.083 M85.073 188.708 L 84.583 189.250 85.125 188.760 C 85.423 188.491,85.667 188.248,85.667 188.219 C 85.667 188.090,85.529 188.203,85.073 188.708 M161.360 188.924 C 161.081 189.537,161.134 189.667,161.436 189.110 C 161.577 188.850,161.662 188.606,161.623 188.568 C 161.585 188.530,161.467 188.690,161.360 188.924 M349.389 189.833 C 349.389 190.521,349.419 190.802,349.455 190.458 C 349.491 190.115,349.491 189.552,349.455 189.208 C 349.419 188.865,349.389 189.146,349.389 189.833 M305.667 189.743 C 305.667 189.789,305.967 189.980,306.333 190.167 C 306.700 190.354,307.000 190.469,307.000 190.423 C 307.000 190.378,306.700 190.187,306.333 190.000 C 305.967 189.813,305.667 189.697,305.667 189.743 M51.407 195.500 C 51.407 198.296,51.430 199.440,51.458 198.042 C 51.486 196.644,51.486 194.356,51.458 192.958 C 51.430 191.560,51.407 192.704,51.407 195.500 M157.994 193.792 L 157.083 194.750 158.042 193.839 C 158.569 193.338,159.000 192.907,159.000 192.881 C 159.000 192.757,158.841 192.901,157.994 193.792 M349.567 195.417 C 349.568 196.883,349.593 197.461,349.624 196.700 C 349.655 195.940,349.655 194.740,349.624 194.034 C 349.593 193.328,349.567 193.950,349.567 195.417 M314.167 194.408 C 314.167 194.454,314.392 194.608,314.667 194.750 C 314.942 194.892,315.167 194.971,315.167 194.925 C 315.167 194.879,314.942 194.726,314.667 194.583 C 314.392 194.441,314.167 194.362,314.167 194.408 M215.708 195.456 C 216.144 195.490,216.856 195.490,217.292 195.456 C 217.727 195.422,217.371 195.393,216.500 195.393 C 215.629 195.393,215.273 195.422,215.708 195.456 M209.875 195.619 C 210.127 195.658,210.540 195.658,210.792 195.619 C 211.044 195.581,210.838 195.550,210.333 195.550 C 209.829 195.550,209.623 195.581,209.875 195.619 M222.628 195.621 C 222.928 195.658,223.378 195.657,223.628 195.619 C 223.878 195.581,223.633 195.551,223.083 195.552 C 222.533 195.553,222.328 195.584,222.628 195.621 M207.208 195.782 C 207.369 195.823,207.631 195.823,207.792 195.782 C 207.952 195.740,207.821 195.705,207.500 195.705 C 207.179 195.705,207.048 195.740,207.208 195.782 M226.127 195.785 C 226.334 195.824,226.634 195.823,226.794 195.781 C 226.953 195.739,226.783 195.707,226.417 195.709 C 226.050 195.711,225.920 195.745,226.127 195.785 M228.542 195.948 C 228.702 195.990,228.965 195.990,229.125 195.948 C 229.285 195.906,229.154 195.872,228.833 195.872 C 228.512 195.872,228.381 195.906,228.542 195.948 M193.750 197.833 C 193.540 197.924,193.509 197.977,193.667 197.977 C 193.804 197.977,194.067 197.912,194.250 197.833 C 194.460 197.743,194.491 197.690,194.333 197.690 C 194.196 197.690,193.933 197.755,193.750 197.833 M245.542 197.782 C 245.702 197.823,245.965 197.823,246.125 197.782 C 246.285 197.740,246.154 197.705,245.833 197.705 C 245.512 197.705,245.381 197.740,245.542 197.782 M247.875 198.115 C 248.035 198.157,248.298 198.157,248.458 198.115 C 248.619 198.073,248.487 198.039,248.167 198.039 C 247.846 198.039,247.715 198.073,247.875 198.115 M191.917 198.333 C 191.707 198.424,191.676 198.477,191.833 198.477 C 191.971 198.477,192.233 198.412,192.417 198.333 C 192.627 198.243,192.658 198.190,192.500 198.190 C 192.362 198.190,192.100 198.255,191.917 198.333 M141.882 198.957 C 142.504 198.989,143.479 198.989,144.049 198.957 C 144.618 198.924,144.108 198.898,142.917 198.898 C 141.725 198.898,141.259 198.925,141.882 198.957 M137.375 199.119 C 137.627 199.158,138.040 199.158,138.292 199.119 C 138.544 199.081,138.337 199.050,137.833 199.050 C 137.329 199.050,137.123 199.081,137.375 199.119 M134.292 199.284 C 134.498 199.324,134.835 199.324,135.042 199.284 C 135.248 199.245,135.079 199.212,134.667 199.212 C 134.254 199.212,134.085 199.245,134.292 199.284 M132.042 199.448 C 132.202 199.490,132.465 199.490,132.625 199.448 C 132.785 199.406,132.654 199.372,132.333 199.372 C 132.012 199.372,131.881 199.406,132.042 199.448 M129.875 199.615 C 130.035 199.657,130.298 199.657,130.458 199.615 C 130.619 199.573,130.487 199.539,130.167 199.539 C 129.846 199.539,129.715 199.573,129.875 199.615 M349.390 201.250 C 349.391 201.983,349.420 202.263,349.456 201.871 C 349.491 201.479,349.490 200.879,349.454 200.537 C 349.419 200.196,349.390 200.517,349.390 201.250 M51.548 202.750 C 51.549 203.208,51.581 203.376,51.620 203.123 C 51.658 202.869,51.657 202.494,51.617 202.289 C 51.578 202.084,51.546 202.292,51.548 202.750 M147.209 202.750 C 147.211 203.117,147.245 203.247,147.285 203.040 C 147.324 202.832,147.323 202.532,147.281 202.373 C 147.239 202.214,147.207 202.383,147.209 202.750 M349.217 204.000 C 349.217 204.504,349.248 204.710,349.286 204.458 C 349.324 204.206,349.324 203.794,349.286 203.542 C 349.248 203.290,349.217 203.496,349.217 204.000 M51.709 205.250 C 51.711 205.617,51.745 205.747,51.785 205.540 C 51.824 205.332,51.823 205.032,51.781 204.873 C 51.739 204.714,51.707 204.883,51.709 205.250 M147.209 206.250 C 147.211 206.617,147.245 206.747,147.285 206.540 C 147.324 206.332,147.323 206.032,147.281 205.873 C 147.239 205.714,147.207 205.883,147.209 206.250 M330.558 207.000 C 330.558 207.779,330.587 208.098,330.622 207.708 C 330.657 207.319,330.657 206.681,330.622 206.292 C 330.587 205.902,330.558 206.221,330.558 207.000 M349.042 206.250 C 349.044 206.617,349.078 206.747,349.118 206.540 C 349.158 206.332,349.156 206.032,349.115 205.873 C 349.073 205.714,349.040 205.883,349.042 206.250 M51.872 207.167 C 51.872 207.487,51.906 207.619,51.948 207.458 C 51.990 207.298,51.990 207.035,51.948 206.875 C 51.906 206.715,51.872 206.846,51.872 207.167 M348.872 208.000 C 348.872 208.321,348.906 208.452,348.948 208.292 C 348.990 208.131,348.990 207.869,348.948 207.708 C 348.906 207.548,348.872 207.679,348.872 208.000 M76.727 209.833 C 76.727 210.704,76.755 211.060,76.789 210.625 C 76.824 210.190,76.824 209.477,76.789 209.042 C 76.755 208.606,76.727 208.963,76.727 209.833 M90.077 210.542 L 89.250 211.417 90.125 210.590 C 90.938 209.821,91.076 209.667,90.952 209.667 C 90.926 209.667,90.532 210.060,90.077 210.542 M330.723 210.833 C 330.723 211.521,330.752 211.802,330.788 211.458 C 330.824 211.115,330.824 210.552,330.788 210.208 C 330.752 209.865,330.723 210.146,330.723 210.833 M153.695 210.000 C 153.703 210.433,153.966 211.144,153.972 210.750 C 153.974 210.567,153.912 210.267,153.833 210.083 C 153.746 209.879,153.692 209.847,153.695 210.000 M302.250 210.000 C 302.433 210.079,302.696 210.143,302.833 210.143 C 302.991 210.143,302.960 210.090,302.750 210.000 C 302.567 209.921,302.304 209.857,302.167 209.857 C 302.009 209.857,302.040 209.910,302.250 210.000 M145.860 211.924 C 145.581 212.537,145.634 212.667,145.936 212.110 C 146.077 211.850,146.162 211.606,146.123 211.568 C 146.085 211.530,145.967 211.690,145.860 211.924 M154.209 212.583 C 154.211 212.950,154.245 213.080,154.285 212.873 C 154.324 212.666,154.323 212.366,154.281 212.206 C 154.239 212.047,154.207 212.217,154.209 212.583 M308.955 212.787 C 309.250 212.824,309.775 212.824,310.121 212.788 C 310.467 212.752,310.225 212.722,309.583 212.721 C 308.942 212.721,308.659 212.750,308.955 212.787 M305.542 212.953 C 305.794 212.991,306.206 212.991,306.458 212.953 C 306.710 212.915,306.504 212.883,306.000 212.883 C 305.496 212.883,305.290 212.915,305.542 212.953 M302.544 213.120 C 302.797 213.158,303.172 213.157,303.377 213.117 C 303.582 213.078,303.375 213.046,302.917 213.048 C 302.458 213.049,302.291 213.081,302.544 213.120 M299.708 213.286 C 299.960 213.324,300.373 213.324,300.625 213.286 C 300.877 213.248,300.671 213.217,300.167 213.217 C 299.662 213.217,299.456 213.248,299.708 213.286 M330.888 214.250 C 330.889 214.892,330.919 215.134,330.955 214.788 C 330.991 214.442,330.990 213.917,330.954 213.621 C 330.917 213.325,330.887 213.608,330.888 214.250 M88.379 214.000 C 88.379 214.412,88.411 214.581,88.451 214.375 C 88.491 214.169,88.491 213.831,88.451 213.625 C 88.411 213.419,88.379 213.588,88.379 214.000 M297.458 213.451 C 297.665 213.491,298.002 213.491,298.208 213.451 C 298.415 213.411,298.246 213.379,297.833 213.379 C 297.421 213.379,297.252 213.411,297.458 213.451 M154.390 214.750 C 154.391 215.483,154.420 215.763,154.456 215.371 C 154.491 214.979,154.490 214.379,154.454 214.037 C 154.419 213.696,154.390 214.017,154.390 214.750 M295.211 213.620 C 295.464 213.658,295.839 213.657,296.044 213.617 C 296.249 213.578,296.042 213.546,295.583 213.548 C 295.125 213.549,294.957 213.581,295.211 213.620 M293.044 213.786 C 293.297 213.825,293.672 213.824,293.877 213.784 C 294.082 213.744,293.875 213.713,293.417 213.714 C 292.958 213.716,292.791 213.748,293.044 213.786 M291.292 213.951 C 291.498 213.991,291.835 213.991,292.042 213.951 C 292.248 213.911,292.079 213.879,291.667 213.879 C 291.254 213.879,291.085 213.911,291.292 213.951 M289.458 214.118 C 289.665 214.157,290.002 214.157,290.208 214.118 C 290.415 214.078,290.246 214.045,289.833 214.045 C 289.421 214.045,289.252 214.078,289.458 214.118 M287.794 214.285 C 288.001 214.324,288.301 214.323,288.460 214.281 C 288.620 214.239,288.450 214.207,288.083 214.209 C 287.717 214.211,287.586 214.245,287.794 214.285 M286.294 214.451 C 286.501 214.491,286.801 214.490,286.960 214.448 C 287.120 214.406,286.950 214.374,286.583 214.375 C 286.217 214.377,286.086 214.411,286.294 214.451 M284.708 214.615 C 284.869 214.657,285.131 214.657,285.292 214.615 C 285.452 214.573,285.321 214.539,285.000 214.539 C 284.679 214.539,284.548 214.573,284.708 214.615 M142.667 216.551 C 142.162 217.033,141.525 217.598,141.250 217.806 C 140.908 218.066,140.872 218.126,141.136 217.998 C 141.507 217.817,143.837 215.680,143.667 215.676 C 143.621 215.674,143.171 216.068,142.667 216.551 M154.205 216.833 C 154.205 217.154,154.240 217.285,154.282 217.125 C 154.323 216.965,154.323 216.702,154.282 216.542 C 154.240 216.381,154.205 216.512,154.205 216.833 M89.889 216.778 C 90.180 217.123,92.310 218.338,92.608 218.329 C 92.686 218.327,92.200 218.033,91.529 217.676 C 90.857 217.320,90.144 216.890,89.945 216.722 L 89.583 216.417 89.889 216.778 M53.182 217.068 C 53.161 217.509,53.875 221.289,53.941 221.083 C 53.971 220.992,53.815 219.979,53.596 218.833 C 53.377 217.688,53.190 216.893,53.182 217.068 M331.050 218.000 C 331.050 218.504,331.081 218.710,331.119 218.458 C 331.158 218.206,331.158 217.794,331.119 217.542 C 331.081 217.290,331.050 217.496,331.050 218.000 M139.833 218.583 C 139.421 218.804,139.143 218.988,139.215 218.992 C 139.392 219.003,140.667 218.348,140.667 218.247 C 140.667 218.136,140.674 218.133,139.833 218.583 M346.762 221.429 C 346.605 222.219,346.509 222.898,346.548 222.937 C 346.587 222.976,346.748 222.362,346.905 221.571 C 347.062 220.781,347.158 220.102,347.119 220.063 C 347.079 220.024,346.919 220.638,346.762 221.429 M331.220 221.667 C 331.220 222.262,331.250 222.506,331.287 222.208 C 331.324 221.910,331.324 221.423,331.287 221.125 C 331.250 220.827,331.220 221.071,331.220 221.667 M105.875 221.282 C 106.035 221.323,106.298 221.323,106.458 221.282 C 106.619 221.240,106.487 221.205,106.167 221.205 C 105.846 221.205,105.715 221.240,105.875 221.282 M107.542 221.448 C 107.702 221.490,107.965 221.490,108.125 221.448 C 108.285 221.406,108.154 221.372,107.833 221.372 C 107.513 221.372,107.381 221.406,107.542 221.448 M127.460 221.451 C 127.668 221.491,127.968 221.490,128.127 221.448 C 128.286 221.406,128.117 221.374,127.750 221.375 C 127.383 221.377,127.253 221.411,127.460 221.451 M109.628 221.621 C 109.928 221.658,110.378 221.657,110.628 221.619 C 110.878 221.581,110.633 221.551,110.083 221.552 C 109.533 221.553,109.328 221.584,109.628 221.621 M125.208 221.619 C 125.460 221.658,125.873 221.658,126.125 221.619 C 126.377 221.581,126.171 221.550,125.667 221.550 C 125.162 221.550,124.956 221.581,125.208 221.619 M112.542 221.789 C 112.977 221.824,113.690 221.824,114.125 221.789 C 114.560 221.755,114.204 221.727,113.333 221.727 C 112.462 221.727,112.106 221.755,112.542 221.789 M121.880 221.789 C 122.318 221.824,122.993 221.823,123.380 221.788 C 123.767 221.754,123.408 221.725,122.583 221.726 C 121.758 221.726,121.442 221.755,121.880 221.789 M117.375 221.955 C 117.719 221.991,118.281 221.991,118.625 221.955 C 118.969 221.919,118.688 221.889,118.000 221.889 C 117.313 221.889,117.031 221.919,117.375 221.955 M54.200 222.417 C 54.200 222.600,54.260 222.938,54.333 223.167 C 54.439 223.497,54.467 223.514,54.467 223.250 C 54.467 223.067,54.407 222.729,54.333 222.500 C 54.228 222.170,54.200 222.153,54.200 222.417 M320.368 222.623 C 320.982 222.655,322.032 222.656,322.701 222.624 C 323.370 222.592,322.867 222.566,321.583 222.566 C 320.300 222.565,319.753 222.591,320.368 222.623 M327.125 222.624 C 327.790 222.655,328.877 222.655,329.542 222.624 C 330.206 222.592,329.662 222.566,328.333 222.566 C 327.004 222.566,326.460 222.592,327.125 222.624 M317.044 222.786 C 317.297 222.825,317.672 222.824,317.877 222.784 C 318.082 222.744,317.875 222.713,317.417 222.714 C 316.958 222.716,316.791 222.748,317.044 222.786 M315.127 222.951 C 315.334 222.991,315.634 222.990,315.794 222.948 C 315.953 222.906,315.783 222.874,315.417 222.875 C 315.050 222.877,314.920 222.911,315.127 222.951 M346.179 224.095 C 346.064 224.607,346.002 225.058,346.042 225.097 C 346.081 225.137,346.207 224.750,346.321 224.238 C 346.436 223.726,346.498 223.275,346.458 223.236 C 346.419 223.197,346.293 223.583,346.179 224.095 M81.830 226.328 C 82.024 226.601,82.267 226.876,82.371 226.940 C 82.475 227.004,82.350 226.782,82.094 226.445 C 81.537 225.715,81.327 225.622,81.830 226.328 M149.993 226.542 C 149.683 226.931,149.562 227.144,149.723 227.015 C 150.026 226.771,150.740 225.833,150.623 225.833 C 150.586 225.833,150.302 226.152,149.993 226.542 M83.917 228.667 C 84.646 229.400,85.280 230.000,85.326 230.000 C 85.371 230.000,84.812 229.400,84.083 228.667 C 83.354 227.933,82.720 227.333,82.674 227.333 C 82.629 227.333,83.188 227.933,83.917 228.667 M146.250 230.098 L 145.750 230.528 146.292 230.169 C 146.590 229.972,146.833 229.778,146.833 229.739 C 146.833 229.614,146.763 229.657,146.250 230.098 M212.417 229.833 C 212.207 229.924,212.176 229.977,212.333 229.977 C 212.471 229.977,212.733 229.912,212.917 229.833 C 213.127 229.743,213.158 229.690,213.000 229.690 C 212.862 229.690,212.600 229.755,212.417 229.833 M268.167 229.790 C 268.167 229.888,268.035 229.949,267.875 229.925 C 267.715 229.901,267.678 229.914,267.794 229.953 C 267.909 229.993,267.955 230.113,267.895 230.221 C 267.835 230.329,267.924 230.287,268.092 230.129 C 268.259 229.971,268.345 229.789,268.282 229.726 C 268.218 229.663,268.167 229.692,268.167 229.790 M289.125 230.262 C 288.502 230.600,288.540 230.741,289.167 230.417 C 289.442 230.274,289.667 230.123,289.667 230.079 C 289.667 229.972,289.649 229.978,289.125 230.262 M210.750 230.333 C 210.540 230.424,210.509 230.477,210.667 230.477 C 210.804 230.477,211.067 230.412,211.250 230.333 C 211.460 230.243,211.491 230.190,211.333 230.190 C 211.196 230.190,210.933 230.255,210.750 230.333 M264.575 233.042 L 263.917 233.750 264.625 233.091 C 265.284 232.478,265.410 232.333,265.284 232.333 C 265.257 232.333,264.938 232.652,264.575 233.042 M57.025 233.167 C 57.025 233.304,57.126 233.679,57.250 234.000 C 57.374 234.321,57.475 234.471,57.475 234.333 C 57.475 234.196,57.374 233.821,57.250 233.500 C 57.126 233.179,57.025 233.029,57.025 233.167 M140.833 233.250 C 140.604 233.381,140.492 233.488,140.583 233.488 C 140.675 233.488,140.938 233.381,141.167 233.250 C 141.396 233.119,141.508 233.012,141.417 233.012 C 141.325 233.012,141.063 233.119,140.833 233.250 M283.417 234.102 L 282.750 234.698 283.458 234.168 C 284.068 233.712,284.288 233.493,284.125 233.502 C 284.102 233.504,283.783 233.773,283.417 234.102 M253.583 233.833 C 253.373 233.924,253.342 233.977,253.500 233.977 C 253.637 233.977,253.900 233.912,254.083 233.833 C 254.293 233.743,254.324 233.690,254.167 233.690 C 254.029 233.690,253.767 233.755,253.583 233.833 M57.513 234.749 C 57.494 234.994,58.357 237.532,58.432 237.457 C 58.468 237.421,58.278 236.760,58.011 235.988 C 57.744 235.215,57.519 234.658,57.513 234.749 M282.073 235.208 L 281.583 235.750 282.125 235.260 C 282.630 234.804,282.743 234.667,282.615 234.667 C 282.586 234.667,282.342 234.910,282.073 235.208 M261.409 236.208 L 260.750 236.917 261.458 236.258 C 262.117 235.645,262.243 235.500,262.117 235.500 C 262.090 235.500,261.771 235.819,261.409 236.208 M279.663 237.458 L 278.250 238.917 279.708 237.504 C 280.510 236.727,281.167 236.070,281.167 236.045 C 281.167 235.924,280.975 236.104,279.663 237.458 M342.020 238.353 C 341.827 238.924,341.698 239.420,341.733 239.455 C 341.768 239.490,341.954 239.051,342.147 238.480 C 342.340 237.909,342.469 237.413,342.434 237.378 C 342.399 237.343,342.212 237.782,342.020 238.353 M241.031 237.947 C 240.636 238.087,240.342 238.231,240.378 238.267 C 240.454 238.343,242.000 237.835,242.000 237.734 C 242.000 237.630,241.810 237.672,241.031 237.947 M123.708 238.115 C 123.869 238.157,124.131 238.157,124.292 238.115 C 124.452 238.073,124.321 238.039,124.000 238.039 C 123.679 238.039,123.548 238.073,123.708 238.115 M106.208 238.282 C 106.369 238.323,106.631 238.323,106.792 238.282 C 106.952 238.240,106.821 238.205,106.500 238.205 C 106.179 238.205,106.048 238.240,106.208 238.282 M122.294 238.285 C 122.501 238.324,122.801 238.323,122.960 238.281 C 123.120 238.239,122.950 238.207,122.583 238.209 C 122.217 238.211,122.086 238.245,122.294 238.285 M107.625 238.451 C 107.831 238.491,108.169 238.491,108.375 238.451 C 108.581 238.411,108.412 238.379,108.000 238.379 C 107.587 238.379,107.419 238.411,107.625 238.451 M120.625 238.451 C 120.831 238.491,121.169 238.491,121.375 238.451 C 121.581 238.411,121.412 238.379,121.000 238.379 C 120.587 238.379,120.419 238.411,120.625 238.451 M109.625 238.621 C 109.923 238.658,110.410 238.658,110.708 238.621 C 111.006 238.584,110.763 238.553,110.167 238.553 C 109.571 238.553,109.327 238.584,109.625 238.621 M118.292 238.621 C 118.590 238.658,119.077 238.658,119.375 238.621 C 119.673 238.584,119.429 238.553,118.833 238.553 C 118.237 238.553,117.994 238.584,118.292 238.621 M113.713 238.789 C 114.152 238.824,114.827 238.823,115.213 238.788 C 115.600 238.754,115.242 238.725,114.417 238.726 C 113.592 238.726,113.275 238.755,113.713 238.789 M341.500 241.417 C 341.729 241.548,341.992 241.655,342.083 241.655 C 342.175 241.655,342.063 241.548,341.833 241.417 C 341.604 241.286,341.342 241.178,341.250 241.178 C 341.158 241.178,341.271 241.286,341.500 241.417 M343.000 242.077 C 343.000 242.122,343.300 242.313,343.667 242.500 C 344.033 242.687,344.333 242.803,344.333 242.757 C 344.333 242.711,344.033 242.520,343.667 242.333 C 343.300 242.146,343.000 242.031,343.000 242.077 M61.220 244.880 C 61.520 245.715,62.552 248.003,62.605 247.950 C 62.673 247.883,61.362 244.799,61.209 244.667 C 61.157 244.621,61.162 244.717,61.220 244.880 M273.500 245.667 C 273.313 246.033,273.197 246.333,273.243 246.333 C 273.289 246.333,273.480 246.033,273.667 245.667 C 273.854 245.300,273.969 245.000,273.923 245.000 C 273.878 245.000,273.687 245.300,273.500 245.667 M347.833 245.187 C 349.693 247.006,351.140 248.295,350.083 247.192 C 349.442 246.523,348.617 245.743,348.250 245.459 C 347.883 245.175,347.696 245.053,347.833 245.187 M254.694 246.090 C 254.414 246.703,254.468 246.834,254.770 246.277 C 254.911 246.017,254.995 245.773,254.957 245.735 C 254.919 245.696,254.800 245.857,254.694 246.090 M254.194 247.257 C 253.914 247.870,253.968 248.001,254.270 247.444 C 254.411 247.183,254.495 246.939,254.457 246.901 C 254.419 246.863,254.300 247.023,254.194 247.257 M62.678 248.250 C 62.678 248.342,62.786 248.604,62.917 248.833 C 63.048 249.063,63.155 249.175,63.155 249.083 C 63.155 248.992,63.048 248.729,62.917 248.500 C 62.786 248.271,62.678 248.158,62.678 248.250 M160.333 249.417 C 160.104 249.548,159.992 249.655,160.083 249.655 C 160.175 249.655,160.438 249.548,160.667 249.417 C 160.896 249.286,161.008 249.178,160.917 249.178 C 160.825 249.178,160.563 249.286,160.333 249.417 M210.000 250.417 C 209.771 250.548,209.658 250.655,209.750 250.655 C 209.842 250.655,210.104 250.548,210.333 250.417 C 210.563 250.286,210.675 250.178,210.583 250.178 C 210.492 250.178,210.229 250.286,210.000 250.417 M302.216 250.291 C 302.931 250.322,304.056 250.322,304.716 250.290 C 305.376 250.259,304.792 250.233,303.417 250.233 C 302.042 250.234,301.501 250.259,302.216 250.291 M306.627 250.451 C 306.834 250.491,307.134 250.490,307.294 250.448 C 307.453 250.406,307.283 250.374,306.917 250.375 C 306.550 250.377,306.420 250.411,306.627 250.451 M271.379 251.500 C 271.379 251.912,271.411 252.081,271.451 251.875 C 271.491 251.669,271.491 251.331,271.451 251.125 C 271.411 250.919,271.379 251.088,271.379 251.500 M64.667 252.392 C 64.667 252.573,66.494 256.167,66.586 256.167 C 66.661 256.167,64.888 252.517,64.731 252.347 C 64.696 252.309,64.667 252.329,64.667 252.392 M203.500 253.417 C 203.271 253.548,203.158 253.655,203.250 253.655 C 203.342 253.655,203.604 253.548,203.833 253.417 C 204.063 253.286,204.175 253.178,204.083 253.178 C 203.992 253.178,203.729 253.286,203.500 253.417 M150.833 253.750 C 150.604 253.881,150.492 253.988,150.583 253.988 C 150.675 253.988,150.938 253.881,151.167 253.750 C 151.396 253.619,151.508 253.512,151.417 253.512 C 151.325 253.512,151.063 253.619,150.833 253.750 M201.000 254.583 C 200.588 254.804,200.325 254.985,200.417 254.985 C 200.508 254.985,200.921 254.804,201.333 254.583 C 201.746 254.362,202.008 254.182,201.917 254.182 C 201.825 254.182,201.412 254.362,201.000 254.583 M148.667 254.750 C 148.438 254.881,148.325 254.988,148.417 254.988 C 148.508 254.988,148.771 254.881,149.000 254.750 C 149.229 254.619,149.342 254.512,149.250 254.512 C 149.158 254.512,148.896 254.619,148.667 254.750 M272.333 254.552 C 272.333 254.581,272.577 254.825,272.875 255.094 L 273.417 255.583 272.927 255.042 C 272.471 254.537,272.333 254.423,272.333 254.552 M291.160 255.012 L 290.583 255.524 291.208 255.076 C 291.761 254.679,291.940 254.500,291.785 254.500 C 291.759 254.500,291.478 254.730,291.160 255.012 M252.539 256.833 C 252.539 257.154,252.573 257.285,252.615 257.125 C 252.657 256.965,252.657 256.702,252.615 256.542 C 252.573 256.381,252.539 256.512,252.539 256.833 M143.500 257.250 C 143.271 257.381,143.158 257.488,143.250 257.488 C 143.342 257.488,143.604 257.381,143.833 257.250 C 144.063 257.119,144.175 257.012,144.083 257.012 C 143.992 257.012,143.729 257.119,143.500 257.250 M286.580 259.042 L 284.917 260.750 286.625 259.086 C 287.565 258.172,288.333 257.403,288.333 257.378 C 288.333 257.258,288.125 257.455,286.580 259.042 M193.292 258.344 C 192.581 258.707,192.000 259.041,192.000 259.087 C 192.000 259.162,194.650 257.887,194.819 257.731 C 195.056 257.513,194.408 257.773,193.292 258.344 M350.201 259.092 C 349.815 259.869,349.504 260.560,349.508 260.627 C 349.513 260.695,349.855 260.086,350.269 259.274 C 350.683 258.463,350.994 257.772,350.961 257.739 C 350.928 257.706,350.586 258.315,350.201 259.092 M278.500 258.417 C 278.729 258.548,278.992 258.655,279.083 258.655 C 279.175 258.655,279.063 258.548,278.833 258.417 C 278.604 258.286,278.342 258.178,278.250 258.178 C 278.158 258.178,278.271 258.286,278.500 258.417 M226.958 260.784 C 227.165 260.824,227.502 260.824,227.708 260.784 C 227.915 260.745,227.746 260.712,227.333 260.712 C 226.921 260.712,226.752 260.745,226.958 260.784 M69.214 260.958 C 69.634 261.743,71.044 264.000,71.114 264.000 C 71.164 264.000,71.096 263.831,70.964 263.625 C 70.831 263.419,70.401 262.706,70.009 262.042 C 69.616 261.377,69.262 260.833,69.221 260.833 C 69.180 260.833,69.177 260.890,69.214 260.958 M186.625 261.760 C 186.006 262.078,185.500 262.375,185.500 262.421 C 185.500 262.467,186.025 262.240,186.667 261.917 C 187.308 261.594,187.833 261.293,187.833 261.248 C 187.833 261.136,187.880 261.116,186.625 261.760 M222.167 262.250 C 221.938 262.381,221.825 262.488,221.917 262.488 C 222.008 262.488,222.271 262.381,222.500 262.250 C 222.729 262.119,222.842 262.012,222.750 262.012 C 222.658 262.012,222.396 262.119,222.167 262.250 M329.564 264.000 C 329.564 265.146,329.591 265.615,329.623 265.042 C 329.656 264.469,329.656 263.531,329.623 262.958 C 329.591 262.385,329.564 262.854,329.564 264.000 M231.667 263.917 C 232.442 264.696,233.113 265.333,233.159 265.333 C 233.205 265.333,232.608 264.696,231.833 263.917 C 231.058 263.137,230.387 262.500,230.341 262.500 C 230.295 262.500,230.892 263.137,231.667 263.917 M132.125 262.929 C 131.502 263.267,131.540 263.407,132.167 263.083 C 132.442 262.941,132.667 262.789,132.667 262.746 C 132.667 262.638,132.649 262.645,132.125 262.929 M179.125 265.762 C 178.502 266.100,178.540 266.241,179.167 265.917 C 179.442 265.774,179.667 265.623,179.667 265.579 C 179.667 265.472,179.649 265.478,179.125 265.762 M125.958 266.178 C 125.615 266.359,125.333 266.545,125.333 266.591 C 125.333 266.636,125.633 266.520,126.000 266.333 C 126.367 266.146,126.667 265.957,126.667 265.913 C 126.667 265.804,126.665 265.805,125.958 266.178 M233.500 265.885 C 233.500 265.914,233.744 266.158,234.042 266.427 L 234.583 266.917 234.094 266.375 C 233.638 265.870,233.500 265.757,233.500 265.885 M70.917 266.513 C 69.928 267.261,69.795 267.472,70.722 266.822 C 71.422 266.331,71.804 265.989,71.635 266.005 C 71.607 266.007,71.283 266.236,70.917 266.513 M345.500 268.000 C 345.313 268.367,345.197 268.667,345.243 268.667 C 345.289 268.667,345.480 268.367,345.667 268.000 C 345.854 267.633,345.969 267.333,345.923 267.333 C 345.878 267.333,345.687 267.633,345.500 268.000 M257.500 267.879 C 257.500 267.904,258.081 268.486,258.792 269.171 L 260.083 270.417 258.838 269.125 C 257.680 267.925,257.500 267.757,257.500 267.879 M66.333 269.929 C 65.554 270.530,64.804 271.141,64.667 271.286 C 64.529 271.432,65.185 270.965,66.125 270.250 C 67.628 269.107,67.956 268.828,67.792 268.835 C 67.769 268.836,67.112 269.329,66.333 269.929 M119.958 269.429 C 119.335 269.767,119.373 269.907,120.000 269.583 C 120.275 269.441,120.500 269.289,120.500 269.246 C 120.500 269.138,120.482 269.145,119.958 269.429 M171.625 269.929 C 171.002 270.267,171.040 270.407,171.667 270.083 C 171.942 269.941,172.167 269.789,172.167 269.746 C 172.167 269.638,172.149 269.645,171.625 269.929 M210.039 273.000 C 210.039 273.321,210.073 273.452,210.115 273.292 C 210.157 273.131,210.157 272.869,210.115 272.708 C 210.073 272.548,210.039 272.679,210.039 273.000 M61.292 273.939 C 60.581 274.539,60.000 275.085,60.000 275.152 C 60.000 275.219,60.356 274.958,60.792 274.573 C 61.227 274.188,61.846 273.641,62.167 273.358 C 63.249 272.403,62.594 272.838,61.292 273.939 M210.039 275.167 C 210.039 275.487,210.073 275.619,210.115 275.458 C 210.157 275.298,210.157 275.035,210.115 274.875 C 210.073 274.715,210.039 274.846,210.039 275.167 M271.167 278.075 C 271.167 278.121,271.392 278.274,271.667 278.417 C 271.942 278.559,272.167 278.638,272.167 278.592 C 272.167 278.546,271.942 278.392,271.667 278.250 C 271.392 278.108,271.167 278.029,271.167 278.075 M242.012 278.417 C 242.012 278.508,242.119 278.771,242.250 279.000 C 242.381 279.229,242.488 279.342,242.488 279.250 C 242.488 279.158,242.381 278.896,242.250 278.667 C 242.119 278.438,242.012 278.325,242.012 278.417 M325.118 280.755 C 324.872 281.256,324.706 281.667,324.749 281.667 C 324.861 281.667,325.702 279.980,325.627 279.905 C 325.593 279.871,325.364 280.253,325.118 280.755 M278.667 281.917 C 278.896 282.048,279.158 282.155,279.250 282.155 C 279.342 282.155,279.229 282.048,279.000 281.917 C 278.771 281.786,278.508 281.678,278.417 281.678 C 278.325 281.678,278.438 281.786,278.667 281.917 M288.000 285.639 C 288.137 285.724,288.438 285.843,288.667 285.904 C 288.956 285.982,289.007 285.969,288.833 285.861 C 288.696 285.776,288.396 285.657,288.167 285.596 C 287.877 285.518,287.826 285.531,288.000 285.639 M320.912 286.875 L 319.750 288.083 320.958 286.921 C 322.081 285.842,322.243 285.667,322.121 285.667 C 322.095 285.667,321.551 286.210,320.912 286.875 M85.875 289.853 C 85.307 290.216,85.123 290.461,85.625 290.185 C 86.007 289.975,86.606 289.511,86.500 289.508 C 86.454 289.507,86.173 289.662,85.875 289.853 M241.167 290.020 C 240.586 290.530,240.586 290.530,241.120 290.175 C 241.415 289.978,241.701 289.746,241.755 289.659 C 241.916 289.399,241.782 289.481,241.167 290.020 M316.500 289.917 C 316.271 290.048,316.158 290.155,316.250 290.155 C 316.342 290.155,316.604 290.048,316.833 289.917 C 317.063 289.786,317.175 289.678,317.083 289.678 C 316.992 289.678,316.729 289.786,316.500 289.917 M306.375 290.448 C 306.535 290.490,306.798 290.490,306.958 290.448 C 307.119 290.406,306.987 290.372,306.667 290.372 C 306.346 290.372,306.215 290.406,306.375 290.448 M307.708 290.615 C 307.869 290.657,308.131 290.657,308.292 290.615 C 308.452 290.573,308.321 290.539,308.000 290.539 C 307.679 290.539,307.548 290.573,307.708 290.615 M329.740 291.042 L 329.250 291.583 329.792 291.094 C 330.297 290.638,330.410 290.500,330.281 290.500 C 330.252 290.500,330.009 290.744,329.740 291.042 M309.458 290.784 C 309.665 290.824,310.002 290.824,310.208 290.784 C 310.415 290.745,310.246 290.712,309.833 290.712 C 309.421 290.712,309.252 290.745,309.458 290.784 M328.406 292.542 L 327.917 293.083 328.458 292.594 C 328.963 292.138,329.077 292.000,328.948 292.000 C 328.919 292.000,328.675 292.244,328.406 292.542 M218.039 292.667 C 218.039 292.987,218.073 293.119,218.115 292.958 C 218.157 292.798,218.157 292.535,218.115 292.375 C 218.073 292.215,218.039 292.346,218.039 292.667 M73.833 293.417 C 74.144 293.737,74.436 294.000,74.482 294.000 C 74.528 294.000,74.311 293.737,74.000 293.417 C 73.689 293.096,73.397 292.833,73.351 292.833 C 73.305 292.833,73.522 293.096,73.833 293.417 M218.205 294.333 C 218.205 294.654,218.240 294.785,218.282 294.625 C 218.323 294.465,218.323 294.202,218.282 294.042 C 218.240 293.881,218.205 294.012,218.205 294.333 M324.248 296.875 L 321.417 299.750 324.292 296.919 C 325.873 295.361,327.167 294.067,327.167 294.044 C 327.167 293.925,326.879 294.204,324.248 296.875 M74.667 294.385 C 74.667 294.414,74.910 294.658,75.208 294.927 L 75.750 295.417 75.260 294.875 C 74.804 294.370,74.667 294.257,74.667 294.385 M126.583 298.431 L 126.083 298.861 126.625 298.502 C 126.923 298.305,127.167 298.112,127.167 298.072 C 127.167 297.947,127.096 297.991,126.583 298.431 M342.749 299.307 C 342.474 299.475,341.808 300.158,341.269 300.824 C 312.534 336.388,262.853 359.526,207.333 363.202 C 202.949 363.492,184.735 363.493,180.333 363.203 C 144.541 360.846,112.157 350.458,86.260 333.027 C 83.072 330.882,82.834 330.802,80.969 331.256 C 78.531 331.849,77.492 333.994,78.765 335.805 C 79.501 336.853,88.202 342.847,93.912 346.241 C 166.466 389.356,273.608 377.798,331.644 320.596 C 337.542 314.782,346.060 304.754,346.864 302.676 C 347.750 300.389,344.858 298.021,342.749 299.307 M319.906 301.042 L 319.417 301.583 319.958 301.094 C 320.463 300.638,320.577 300.500,320.448 300.500 C 320.419 300.500,320.175 300.744,319.906 301.042 M318.491 302.292 L 317.917 302.917 318.542 302.342 C 319.123 301.808,319.243 301.667,319.116 301.667 C 319.088 301.667,318.807 301.948,318.491 302.292 M120.917 302.431 L 120.417 302.861 120.958 302.502 C 121.256 302.305,121.500 302.112,121.500 302.072 C 121.500 301.947,121.429 301.991,120.917 302.431 M288.748 306.605 C 288.108 307.030,287.508 307.456,287.417 307.552 C 287.234 307.745,287.795 307.410,289.084 306.558 L 289.919 306.007 292.334 306.418 C 293.663 306.645,294.900 306.823,295.083 306.814 C 295.267 306.805,294.404 306.622,293.167 306.407 C 291.929 306.192,290.691 305.975,290.415 305.925 C 290.011 305.851,289.686 305.984,288.748 306.605 M295.708 306.948 C 295.869 306.990,296.131 306.990,296.292 306.948 C 296.452 306.906,296.321 306.872,296.000 306.872 C 295.679 306.872,295.548 306.906,295.708 306.948 M296.875 307.115 C 297.035 307.157,297.298 307.157,297.458 307.115 C 297.619 307.073,297.487 307.039,297.167 307.039 C 296.846 307.039,296.715 307.073,296.875 307.115 M307.208 308.282 C 307.369 308.323,307.631 308.323,307.792 308.282 C 307.952 308.240,307.821 308.205,307.500 308.205 C 307.179 308.205,307.048 308.240,307.208 308.282 M309.294 308.451 C 309.501 308.491,309.801 308.490,309.960 308.448 C 310.120 308.406,309.950 308.374,309.583 308.375 C 309.217 308.377,309.086 308.411,309.294 308.451 M284.042 309.686 C 283.474 310.050,283.290 310.294,283.792 310.018 C 284.174 309.808,284.773 309.345,284.667 309.341 C 284.621 309.340,284.340 309.495,284.042 309.686 M282.623 310.562 C 281.823 311.055,281.599 311.287,282.250 310.951 C 282.772 310.680,283.477 310.177,283.333 310.177 C 283.287 310.177,282.968 310.350,282.623 310.562 M277.458 313.595 C 276.835 313.933,276.873 314.074,277.500 313.750 C 277.775 313.608,278.000 313.456,278.000 313.412 C 278.000 313.305,277.982 313.311,277.458 313.595 M105.250 313.931 L 104.750 314.361 105.292 314.002 C 105.590 313.805,105.833 313.612,105.833 313.572 C 105.833 313.447,105.763 313.491,105.250 313.931 M275.792 314.511 C 275.265 314.783,274.833 315.043,274.833 315.088 C 274.833 315.134,275.283 314.944,275.833 314.667 C 276.383 314.389,276.833 314.125,276.833 314.081 C 276.833 313.970,276.864 313.957,275.792 314.511 M273.125 315.929 C 272.502 316.267,272.540 316.407,273.167 316.083 C 273.442 315.941,273.667 315.789,273.667 315.746 C 273.667 315.638,273.649 315.645,273.125 315.929 M268.833 318.083 C 267.871 318.578,267.158 318.983,267.250 318.983 C 267.342 318.983,268.204 318.578,269.167 318.083 C 270.129 317.589,270.842 317.184,270.750 317.184 C 270.658 317.184,269.796 317.589,268.833 318.083 M266.333 319.250 C 266.104 319.381,265.992 319.488,266.083 319.488 C 266.175 319.488,266.438 319.381,266.667 319.250 C 266.896 319.119,267.008 319.012,266.917 319.012 C 266.825 319.012,266.563 319.119,266.333 319.250 M261.833 321.250 C 261.604 321.381,261.492 321.488,261.583 321.488 C 261.675 321.488,261.938 321.381,262.167 321.250 C 262.396 321.119,262.508 321.012,262.417 321.012 C 262.325 321.012,262.063 321.119,261.833 321.250 M134.623 321.896 C 133.823 322.388,133.599 322.620,134.250 322.284 C 134.772 322.014,135.477 321.511,135.333 321.511 C 135.287 321.510,134.968 321.684,134.623 321.896 M140.000 321.714 C 140.000 321.829,142.191 322.698,142.274 322.615 C 142.310 322.579,141.945 322.395,141.462 322.207 C 140.979 322.019,140.452 321.813,140.292 321.748 C 140.131 321.684,140.000 321.669,140.000 321.714 M258.750 322.512 C 258.383 322.688,258.271 322.786,258.500 322.729 C 258.972 322.611,259.838 322.177,259.583 322.186 C 259.492 322.189,259.117 322.336,258.750 322.512 M133.125 322.762 C 132.502 323.100,132.540 323.241,133.167 322.917 C 133.442 322.774,133.667 322.623,133.667 322.579 C 133.667 322.472,133.649 322.478,133.125 322.762 M257.250 323.089 C 256.833 323.290,256.819 323.313,257.167 323.228 C 257.639 323.113,258.170 322.842,257.917 322.846 C 257.825 322.847,257.525 322.957,257.250 323.089 M127.000 326.083 C 125.854 326.670,124.974 327.153,125.044 327.158 C 125.221 327.170,129.167 325.183,129.167 325.082 C 129.167 324.968,129.300 324.907,127.000 326.083 M248.917 326.000 C 248.183 326.261,247.662 326.480,247.758 326.487 C 247.853 326.494,248.566 326.281,249.341 326.013 C 250.116 325.744,250.637 325.525,250.500 325.526 C 250.362 325.526,249.650 325.739,248.917 326.000 M114.167 325.741 C 114.167 325.787,114.392 325.941,114.667 326.083 C 114.942 326.226,115.167 326.304,115.167 326.259 C 115.167 326.213,114.942 326.059,114.667 325.917 C 114.392 325.774,114.167 325.696,114.167 325.741 M152.583 326.333 C 153.042 326.502,153.529 326.641,153.667 326.641 C 153.804 326.641,153.542 326.502,153.083 326.333 C 152.625 326.164,152.137 326.026,152.000 326.026 C 151.862 326.026,152.125 326.164,152.583 326.333 M246.500 326.750 C 246.179 326.874,246.029 326.975,246.167 326.975 C 246.304 326.975,246.679 326.874,247.000 326.750 C 247.321 326.626,247.471 326.525,247.333 326.525 C 247.196 326.525,246.821 326.626,246.500 326.750 M154.500 326.917 C 154.821 327.040,155.196 327.141,155.333 327.141 C 155.471 327.141,155.321 327.040,155.000 326.917 C 154.679 326.793,154.304 326.692,154.167 326.692 C 154.029 326.692,154.179 326.793,154.500 326.917 M165.667 329.833 C 165.896 329.907,166.233 329.967,166.417 329.967 C 166.681 329.967,166.663 329.939,166.333 329.833 C 166.104 329.760,165.767 329.700,165.583 329.700 C 165.319 329.700,165.337 329.728,165.667 329.833 M234.667 329.833 C 234.337 329.939,234.319 329.967,234.583 329.967 C 234.767 329.967,235.104 329.907,235.333 329.833 C 235.663 329.728,235.681 329.700,235.417 329.700 C 235.233 329.700,234.896 329.760,234.667 329.833 M167.667 330.262 C 168.171 330.386,168.921 330.526,169.333 330.573 C 169.746 330.619,169.446 330.513,168.667 330.336 C 167.073 329.975,166.249 329.914,167.667 330.262 M231.833 330.417 C 231.329 330.534,231.104 330.630,231.333 330.632 C 231.563 330.633,232.125 330.538,232.583 330.420 C 233.665 330.142,233.030 330.139,231.833 330.417 M229.583 330.833 C 229.137 330.947,229.128 330.961,229.500 330.961 C 229.729 330.961,230.142 330.903,230.417 330.833 C 230.863 330.720,230.872 330.706,230.500 330.706 C 230.271 330.706,229.858 330.763,229.583 330.833 M184.042 332.782 C 184.202 332.823,184.465 332.823,184.625 332.782 C 184.785 332.740,184.654 332.705,184.333 332.705 C 184.012 332.705,183.881 332.740,184.042 332.782 M216.375 332.782 C 216.535 332.823,216.798 332.823,216.958 332.782 C 217.119 332.740,216.987 332.705,216.667 332.705 C 216.346 332.705,216.215 332.740,216.375 332.782 M185.708 332.948 C 185.869 332.990,186.131 332.990,186.292 332.948 C 186.452 332.906,186.321 332.872,186.000 332.872 C 185.679 332.872,185.548 332.906,185.708 332.948 M214.708 332.948 C 214.869 332.990,215.131 332.990,215.292 332.948 C 215.452 332.906,215.321 332.872,215.000 332.872 C 214.679 332.872,214.548 332.906,214.708 332.948 M187.625 333.118 C 187.831 333.157,188.169 333.157,188.375 333.118 C 188.581 333.078,188.412 333.045,188.000 333.045 C 187.588 333.045,187.419 333.078,187.625 333.118 M212.625 333.118 C 212.831 333.157,213.169 333.157,213.375 333.118 C 213.581 333.078,213.412 333.045,213.000 333.045 C 212.588 333.045,212.419 333.078,212.625 333.118 M189.961 333.287 C 190.261 333.325,190.711 333.324,190.961 333.286 C 191.212 333.248,190.967 333.217,190.417 333.218 C 189.867 333.219,189.662 333.250,189.961 333.287 M210.128 333.287 C 210.428 333.325,210.878 333.324,211.128 333.286 C 211.378 333.248,211.133 333.217,210.583 333.218 C 210.033 333.219,209.828 333.250,210.128 333.287 M192.792 333.455 C 193.181 333.490,193.819 333.490,194.208 333.455 C 194.598 333.420,194.279 333.392,193.500 333.392 C 192.721 333.392,192.402 333.420,192.792 333.455 M206.792 333.455 C 207.181 333.490,207.819 333.490,208.208 333.455 C 208.598 333.420,208.279 333.392,207.500 333.392 C 206.721 333.392,206.402 333.420,206.792 333.455 M198.718 333.625 C 199.800 333.654,201.525 333.654,202.551 333.624 C 203.577 333.595,202.692 333.571,200.583 333.571 C 198.475 333.572,197.635 333.595,198.718 333.625 " stroke="none" fill="#448473" fill-rule="evenodd"/><path id="path4" d="M217.167 31.988 C 214.354 32.401,213.072 33.200,212.092 35.153 C 208.361 42.590,209.000 53.899,213.937 67.787 C 215.933 73.401,218.500 78.851,218.500 77.474 C 218.500 77.186,220.895 71.258,222.159 68.417 C 226.516 58.625,233.844 47.169,241.058 38.871 C 241.877 37.929,242.518 37.132,242.482 37.099 C 242.446 37.066,241.254 36.652,239.833 36.179 C 230.421 33.046,221.367 31.372,217.167 31.988 M262.167 60.341 C 279.480 74.339,292.529 85.564,305.833 97.908 C 323.963 114.728,340.767 132.202,351.719 145.625 C 352.710 146.840,353.546 147.833,353.576 147.833 C 353.815 147.833,349.757 138.350,347.729 134.170 C 330.661 98.995,299.730 71.353,264.167 59.496 C 258.868 57.729,258.913 57.710,262.167 60.341 M79.750 91.167 C 78.653 92.267,77.793 93.167,77.839 93.167 C 77.884 93.167,78.820 92.267,79.917 91.167 C 81.014 90.067,81.874 89.167,81.828 89.167 C 81.782 89.167,80.847 90.067,79.750 91.167 M214.917 116.657 C 274.279 136.600,318.264 161.084,335.074 183.542 C 335.605 184.252,336.060 184.833,336.084 184.833 C 336.662 184.833,333.965 176.346,332.218 172.667 C 317.440 141.557,274.247 120.538,212.522 114.419 C 210.196 114.189,208.021 114.006,207.688 114.013 C 207.274 114.021,209.553 114.855,214.917 116.657 M140.392 129.904 C 139.009 130.950,136.969 133.355,134.792 136.502 C 133.826 137.899,133.478 138.560,133.100 139.720 C 133.015 139.982,132.870 139.911,132.042 139.200 C 127.394 135.208,118.016 130.333,114.985 130.333 C 113.392 130.333,110.413 133.382,106.683 138.828 C 103.552 143.398,104.357 147.731,108.825 150.368 C 114.283 153.588,118.149 157.328,119.186 160.390 C 119.568 161.519,119.469 161.534,121.922 159.990 C 129.345 155.320,133.907 151.214,135.522 147.750 C 135.735 147.292,135.923 146.892,135.940 146.863 C 136.005 146.744,139.172 148.773,140.611 149.854 C 143.053 151.689,145.076 154.089,145.768 155.969 C 145.926 156.399,146.105 156.808,146.165 156.879 C 146.225 156.950,147.214 156.420,148.362 155.701 C 158.094 149.605,162.413 144.358,160.667 140.752 C 160.345 140.085,157.853 137.492,156.334 136.242 C 153.294 133.739,147.680 130.774,143.607 129.519 C 141.916 128.998,141.528 129.044,140.392 129.904 M369.667 143.388 C 369.667 143.429,370.274 144.465,371.017 145.690 C 380.039 160.567,385.032 181.915,385.071 205.778 C 385.078 209.735,385.098 212.957,385.117 212.939 C 385.195 212.861,386.711 206.651,387.401 203.583 C 394.485 172.093,390.596 151.011,376.583 144.945 C 374.473 144.032,369.667 142.950,369.667 143.388 M223.583 166.100 C 204.798 167.275,191.775 175.541,184.351 191.000 C 182.806 194.218,180.978 200.026,180.584 202.970 L 180.465 203.858 181.858 202.915 C 197.311 192.449,232.279 192.985,281.083 204.436 C 294.191 207.512,311.975 212.412,310.983 212.674 C 310.763 212.733,309.233 212.832,307.583 212.896 C 280.364 213.943,247.090 219.614,218.833 228.021 C 171.212 242.190,126.074 263.449,82.540 292.212 C 77.158 295.768,76.465 296.180,76.207 295.978 C 75.948 295.775,75.940 295.780,76.132 296.025 C 76.321 296.268,76.096 296.472,74.215 297.762 C 68.056 301.986,58.452 309.059,53.524 312.999 L 51.131 314.912 53.866 316.257 C 67.744 323.078,76.228 324.514,87.717 321.986 C 95.055 320.372,99.942 317.905,108.500 311.496 C 162.180 271.295,216.556 243.274,266.125 230.270 C 268.693 229.596,268.721 229.615,267.127 230.925 C 254.334 241.438,249.430 254.396,254.681 263.813 C 260.494 274.237,283.755 286.457,304.500 289.985 C 313.657 291.542,317.047 290.857,321.100 286.632 C 327.039 280.440,331.010 266.371,328.958 258.788 C 328.198 255.979,327.853 255.505,326.167 254.951 C 312.116 250.337,301.399 249.125,296.583 251.605 C 293.634 253.124,290.055 255.795,287.045 258.724 L 285.006 260.708 284.211 260.509 C 281.889 259.927,277.375 257.989,274.817 256.476 C 270.575 253.966,270.351 251.202,273.889 245.015 C 282.268 230.361,299.736 222.614,324.458 222.590 L 331.166 222.583 331.172 221.833 C 331.185 219.968,330.453 204.881,330.334 204.583 C 329.979 203.691,315.601 195.055,306.000 189.967 C 275.528 173.818,244.384 164.799,223.583 166.100 M135.750 169.265 C 111.598 170.489,94.123 177.506,84.110 190.000 C 72.235 204.818,75.113 225.003,90.279 233.271 C 108.334 243.112,142.062 238.694,150.864 225.333 C 155.743 217.927,155.518 211.666,150.019 201.833 C 149.020 200.046,148.222 198.561,148.247 198.534 C 148.272 198.507,148.883 198.342,149.605 198.168 C 157.297 196.311,161.694 191.375,163.114 183.002 C 163.779 179.083,163.233 171.176,162.281 170.941 C 161.100 170.648,153.104 169.782,149.000 169.502 C 146.285 169.317,137.742 169.164,135.750 169.265 M146.748 198.830 C 147.257 199.654,147.476 205.526,147.087 207.926 C 145.497 217.730,139.313 221.140,121.886 221.821 C 103.095 222.555,87.681 218.764,88.391 213.583 C 89.451 205.851,112.636 199.770,144.833 198.778 C 145.612 198.754,146.339 198.719,146.448 198.701 C 146.558 198.682,146.692 198.740,146.748 198.830 M27.565 203.333 C 27.565 204.571,27.592 205.077,27.624 204.458 C 27.656 203.840,27.656 202.827,27.624 202.208 C 27.592 201.590,27.565 202.096,27.565 203.333 M358.542 246.615 C 358.702 246.657,358.965 246.657,359.125 246.615 C 359.285 246.573,359.154 246.539,358.833 246.539 C 358.512 246.539,358.381 246.573,358.542 246.615 M224.804 261.330 C 221.723 262.373,214.676 266.153,212.906 267.711 C 209.897 270.359,209.193 275.412,211.388 278.607 C 211.694 279.053,212.434 280.129,213.033 281.000 C 216.670 286.287,218.674 291.875,218.189 295.375 L 218.056 296.333 218.509 296.333 C 219.254 296.333,223.875 295.686,226.224 295.252 C 239.003 292.892,245.195 288.904,243.998 283.805 C 242.650 278.061,237.670 270.011,231.839 264.149 C 228.193 260.484,227.785 260.320,224.804 261.330 M193.877 372.453 C 194.131 372.491,194.506 372.490,194.711 372.451 C 194.916 372.411,194.708 372.380,194.250 372.381 C 193.792 372.382,193.624 372.415,193.877 372.453 " stroke="none" fill="#f3eb94" fill-rule="evenodd"/></g></svg>